<?xml version="1.0" encoding="UTF-8"?>
<svg id="Layer_1" data-name="Layer 1" xmlns="http://www.w3.org/2000/svg" xmlns:xlink="http://www.w3.org/1999/xlink" viewBox="0 0 1920 1080">
  <defs>
    <style>
      .cls-1, .cls-2, .cls-3, .cls-4, .cls-5 {
        fill: none;
      }

      .cls-6 {
        fill: url(#linear-gradient-2);
      }

      .cls-6, .cls-7, .cls-8, .cls-9, .cls-10, .cls-11 {
        fill-rule: evenodd;
      }

      .cls-7 {
        fill: url(#linear-gradient-3);
      }

      .cls-12 {
        fill: #30ba78;
      }

      .cls-13 {
        fill: #e95420;
      }

      .cls-8, .cls-14, .cls-15, .cls-16 {
        fill: #fff;
      }

      .cls-9 {
        fill: url(#radial-gradient);
      }

      .cls-2, .cls-14 {
        stroke: #333;
        stroke-miterlimit: 10;
        stroke-width: 16px;
      }

      .cls-3 {
        stroke: #fff0ff;
        stroke-width: 5px;
      }

      .cls-3, .cls-17, .cls-18, .cls-19, .cls-20, .cls-21, .cls-22, .cls-23, .cls-24 {
        isolation: isolate;
      }

      .cls-3, .cls-20, .cls-21, .cls-22, .cls-24 {
        font-family: ArialMT, Arial;
        font-size: 127.49px;
      }

      .cls-25 {
        fill: #0d597f;
      }

      .cls-17, .cls-19, .cls-23 {
        opacity: .99;
      }

      .cls-17, .cls-22 {
        fill: #4962ae;
      }

      .cls-26 {
        fill: #d70a53;
      }

      .cls-27 {
        fill: #1793d1;
      }

      .cls-19 {
        fill: #7b7b7b;
        stroke: #8f8f8f;
      }

      .cls-19, .cls-23 {
        stroke-linejoin: round;
      }

      .cls-28 {
        fill: #0bf;
      }

      .cls-21 {
        fill: #fff0ff;
      }

      .cls-4 {
        stroke: #fff;
        stroke-miterlimit: 8;
        stroke-width: 12px;
      }

      .cls-10 {
        fill: url(#linear-gradient);
      }

      .cls-29 {
        letter-spacing: -.02em;
      }

      .cls-23 {
        fill: #3e5495;
        stroke: #3d5292;
        stroke-width: .9px;
      }

      .cls-30 {
        letter-spacing: -.02em;
      }

      .cls-31 {
        letter-spacing: -.04em;
      }

      .cls-32 {
        letter-spacing: -.01em;
      }

      .cls-11 {
        fill: url(#radial-gradient-2);
      }

      .cls-33 {
        letter-spacing: 0em;
      }

      .cls-34 {
        letter-spacing: 0em;
      }

      .cls-35 {
        letter-spacing: 0em;
      }

      .cls-24 {
        fill: url(#pattern13210);
      }

      .cls-36 {
        letter-spacing: 0em;
      }

      .cls-37 {
        fill: #b787ff;
      }

      .cls-16 {
        font-family: MPLUS2-Regular, 'M PLUS 2';
        font-size: 32px;
        font-variation-settings: 'wght' 400;
      }

      .cls-38 {
        fill: #1a1a1a;
      }

      .cls-39 {
        clip-path: url(#clippath);
      }

      .cls-40 {
        fill: #e00;
      }

      .cls-41 {
        letter-spacing: 0em;
      }

      .cls-42 {
        fill: #d45c92;
      }

      .cls-5 {
        stroke: #000;
        stroke-width: 5.88px;
      }
    </style>
    <clipPath id="clippath">
      <rect class="cls-38" x="0" y="0" width="1920" height="1080"/>
    </clipPath>
    <linearGradient id="linear-gradient" x1="1.79" y1="1081.11" x2="1.94" y2="1081.11" gradientTransform="translate(-3740820.53 708329.5) rotate(79.19) scale(3522.69 -3522.69)" gradientUnits="userSpaceOnUse">
      <stop offset="0" stop-color="#fff"/>
      <stop offset=".34" stop-color="#fff"/>
      <stop offset=".51" stop-color="#bebdf3"/>
      <stop offset=".75" stop-color="#867fb7"/>
      <stop offset=".87" stop-color="#9f99c7"/>
      <stop offset="1" stop-color="#524c76"/>
    </linearGradient>
    <linearGradient id="linear-gradient-2" x1="1.02" y1="1080.8" x2="1.16" y2="1080.8" gradientTransform="translate(968552.35 -214034.79) rotate(-102.57) scale(916.75 -916.75)" gradientUnits="userSpaceOnUse">
      <stop offset="0" stop-color="#fff"/>
      <stop offset=".34" stop-color="#fff"/>
      <stop offset=".51" stop-color="#bebbdb"/>
      <stop offset=".75" stop-color="#928bbe"/>
      <stop offset=".87" stop-color="#9f99c7"/>
      <stop offset="1" stop-color="#524c76"/>
    </linearGradient>
    <radialGradient id="radial-gradient" cx="3.19" cy="1077.99" fx="3.19" fy="1077.99" r=".14" gradientTransform="translate(701.38 147394.46) scale(177.59 -136.12)" gradientUnits="userSpaceOnUse">
      <stop offset="0" stop-color="#fff"/>
      <stop offset=".34" stop-color="#fff"/>
      <stop offset=".51" stop-color="#bebbdb"/>
      <stop offset=".75" stop-color="#928bbe"/>
      <stop offset=".87" stop-color="#9f99c7"/>
      <stop offset="1" stop-color="#524c76"/>
    </radialGradient>
    <radialGradient id="radial-gradient-2" cx="1.23" cy="1081.56" fx="1.23" fy="1081.56" r=".14" gradientTransform="translate(-1423724.2 -23676.97) rotate(90.9) scale(1544.98 -1317.67)" xlink:href="#radial-gradient"/>
    <pattern id="pattern13210" x="0" y="0" width="256" height="256" patternTransform="translate(975.16 -13626.63) scale(1.15 -.92)" patternUnits="userSpaceOnUse" viewBox="0 0 256 256">
      <rect class="cls-1" width="256" height="256"/>
    </pattern>
    <linearGradient id="linear-gradient-3" x1="892.87" y1="794.96" x2="892.87" y2="724.76" gradientTransform="translate(-119.46 2472.96) scale(1.93 -2.42)" gradientUnits="userSpaceOnUse">
      <stop offset="0" stop-color="#fff"/>
      <stop offset="1" stop-color="#fff" stop-opacity="0"/>
    </linearGradient>
  </defs>
  <g id="BG">
    <rect class="cls-38" x="0" y="0" width="1920" height="1080"/>
    <g>
      <rect class="cls-38" x="0" y="0" width="1920" height="1080"/>
      <g class="cls-39">
        <g>
          <circle class="cls-2" cx="1472" cy="1052" r="500"/>
          <circle class="cls-2" cx="472" cy="52" r="500"/>
          <line class="cls-14" x1="825.55" y1="405.55" x2="1118.45" y2="698.45"/>
          <line class="cls-14" x1="1118.45" y1="698.45" x2="1118.45" y2="-540"/>
          <line class="cls-14" x1="825.55" y1="1620" x2="825.55" y2="405.55"/>
        </g>
      </g>
    </g>
  </g>
  <g id="Fedora">
    <rect class="cls-28" x="192" y="252" width="256" height="256" rx="48" ry="48"/>
    <path id="path2138" class="cls-15" d="M320.01,305c-41.41,0-74.96,33.55-74.99,74.94h-.01v58.05h.01c.01,9.4,7.63,17.01,17.04,17.01h57.99c41.41-.03,74.96-33.58,74.96-74.99s-33.57-75.01-74.99-75.01h0ZM335.21,335.86c12.59,0,24.49,9.65,24.49,22.95,0,1.23,0,2.47-.21,3.87-.35,3.54-3.58,6.08-7.1,5.58-3.52-.5-5.91-3.84-5.26-7.34.06-.4.08-1.03.08-2.11,0-7.54-6.17-10.45-12-10.45s-11.09,4.9-11.11,10.45c.1,6.42,0,12.79,0,19.2l10.82-.08c8.45-.18,8.55,12.56.1,12.5l-10.92.08c-.04,5.16.04,4.22.01,6.82,0,0,.09,6.31-.1,11.09-1.31,14.06-13.27,25.3-27.65,25.3-15.24,0-27.81-12.47-27.81-27.75.46-15.72,13-28.07,28.79-27.92l8.79-.06v12.48l-8.79.08h-.07c-8.67.26-16.1,6.13-16.24,15.42,0,8.46,6.84,15.25,15.33,15.25s15.25-6.17,15.25-15.23c.1-15.03-.07-31.62-.01-47.23,0-.88.05-1.57.14-2.54,1.43-11.55,11.77-20.36,23.46-20.36h0Z"/>
  </g>
  <g id="RHEL">
    <rect class="cls-40" x="512" y="252" width="256" height="256" rx="48" ry="48"/>
    <path class="cls-15" d="M665.06,388.66c9.86,0,24.12-2.03,24.12-13.76.03-.9-.05-1.81-.24-2.7l-5.87-25.5c-1.36-5.61-2.55-8.16-12.4-13.08-7.64-3.91-24.29-10.36-29.22-10.36-4.59,0-5.92,5.91-11.39,5.91s-9.17-4.41-14.1-4.41-7.81,3.22-10.19,9.85c0,0-6.63,18.69-7.48,21.4-.14.5-.19,1.01-.17,1.53,0,7.27,28.61,31.09,66.93,31.09M690.69,379.66c1.36,6.45,1.36,7.13,1.36,7.98,0,11.03-12.4,17.16-28.71,17.16-36.85.02-69.13-21.57-69.13-35.84,0-1.99.4-3.95,1.19-5.78-13.25.66-30.41,3.03-30.41,18.17,0,24.81,58.78,55.38,105.32,55.38,35.68,0,44.68-16.14,44.68-28.88,0-10.02-8.67-21.4-24.29-28.2"/>
  </g>
  <g id="Ubuntu">
    <rect class="cls-13" x="832" y="252" width="256" height="256" rx="48" ry="48"/>
    <g>
      <circle class="cls-15" cx="902.31" cy="375.88" r="21.31"/>
      <circle class="cls-15" cx="991.07" cy="329.15" r="21.31"/>
      <path class="cls-15" d="M950.37,430.73c-15.35-3.29-28.18-13.1-35.39-26.99-5.68,2.59-12.07,3.38-18.22,2.24,8.73,21.43,27.24,37,49.95,41.87,4.98,1.07,10.07,1.59,15.14,1.56-3.91-5.15-6.09-11.35-6.24-17.82-1.75-.2-3.51-.48-5.23-.85h0Z"/>
      <circle class="cls-15" cx="986.26" cy="430.85" r="21.31"/>
      <path class="cls-15" d="M1015.92,423.02c6.63-8.35,11.29-18.23,13.55-28.73,3.92-18.3.26-37.5-10.05-53.08-2.45,5.78-6.62,10.67-11.99,14.03,5.75,10.84,7.5,23.35,4.93,35.38-1.26,5.89-3.49,11.44-6.63,16.51,5.02,4.11,8.55,9.65,10.2,15.88h0Z"/>
      <path class="cls-15" d="M900.66,345.32c.54-.03,1.08-.04,1.62-.04,2.15,0,4.31.23,6.43.69,3.47.74,6.74,2.06,9.73,3.91,9.6-13.8,25.08-22.08,41.85-22.39.09-1.61.3-3.22.64-4.8.98-4.57,2.98-8.83,5.82-12.49-26.8-2.12-52.84,11.71-66.1,35.11Z"/>
    </g>
  </g>
  <g id="SUSE_openSUSE" data-name="SUSE/openSUSE">
    <rect class="cls-12" x="1152" y="252" width="256" height="256" rx="48" ry="48"/>
    <path class="cls-15" d="M1359.75,362.21c-1.1-1.14-2.91-1.14-4.01,0-1.23,1.23-1.09,3.36.44,4.37.93.62,2.18.62,3.12,0,1.53-1.02,1.68-3.14.44-4.37M1356.04,352.2c-7.84-1.84-14.89,5.21-13.05,13.05.94,3.99,4.11,7.16,8.1,8.1,7.85,1.84,14.9-5.21,13.05-13.06-.94-3.99-4.11-7.17-8.1-8.1M1225.06,425c-9.3,0-18.59-3.76-24.23-9.82-6.96-7.48-11.16-14.99-10.59-29.32.35-9.03,5.37-18.95,13.41-26.52,11.6-10.94,27.13-18.86,43.74-22.29,6.4-1.32,13.03-1.99,19.7-1.99,3.31,0,6.66.17,9.97.49,9.23.92,17.91,2.62,25.79,5.07,4.28,1.33,8.39,2.9,12.21,4.65.54.25,1.1.5,1.68.75,3.17,1.41,6.75,3,9,5.29l.87.88v-1.24c0-2.68-.06-5.45-.11-8.12-.04-2.31-.09-4.5-.09-6.3,0-.94.79-1.52,1.52-1.52.22,0,.43.05.62.14,1.83.85,4.46,2.08,7.49,3.5,6.51,3.05,14.6,6.84,20.72,9.64,5.27,2.41,8.8,6.49,10.76,12.47,1.72,5.2,2.06,11.08,2.28,17.14,0,.2.02.39-.04.51-.03.06-.23.33-1.61.33-.22,0-.43,0-.61-.01-.16,0-.3-.01-.41-.01h-.07c-.37,0-.79,0-1.24.01-1.29,0-2.76.01-3.84.06-1.1.05-2.2.08-3.36.08-1.58,0-3.27-.05-5.16-.14-4.77-.23-9.86-2.25-13.63-5.4-.33-.28-.94-.47-1.48-.47-.49,0-.9.16-1.19.45-.75.77-.53,1.96-.06,2.45,2,2.02,4.14,3.32,6.75,4.67,3.09,1.59,6.36,2.06,10.33,2.3,1.48.09,2.96.13,4.4.13,2.36,0,4.7-.12,6.95-.35l.56-.06c.5-.05.92-.1,1.26-.12-.29.25-.74.59-1.32,1.03-2.39,1.78-5.39,3.28-8.9,4.46-4.34,1.48-9.07,2.29-14.07,2.44-.49.01-.99.02-1.48.02-2.38,0-4.8-.16-7.19-.47-.62-.08-1.25-.17-1.85-.26-.86-.13-1.76-.26-2.65-.35-.21-.02-.41-.04-.62-.07-.62-.07-1.26-.14-1.9-.14-.49,0-.93.05-1.34.13-1.26.28-2.37.96-3.12,1.92-1.09,1.43-1.39,5.06-.8,6.63,1.16,3.13,3.75,4.87,6.09,6.27.76.45,1.58.82,2.37,1.17,1.95.87,3.64,1.64,4.2,3.38-.72.19-2.91.33-5.32.33h-7.87s-.27,0-.68,0c-2.29,0-4.06-.17-4.86-.46h-.03s-.03-.03-.04-.03c-.69-.37-1.03-1.38-1.3-2.2v-.04c-.4-1.15-1.05-2.35-2.14-3.91-2.14-3.05-4.87-5.41-7.31-6.31-3.53-1.31-5.64-1.55-8.52-1.55-.83,0-1.71.02-2.74.04-.77.02-1.62.04-2.56.05-.73,0-1.34.01-1.88.01-1.26,0-2.09-.02-3.06-.05-1.18-.03-2.51-.06-4.92-.06-.77,0-1.35.83-1.54,2.23-.35,2.57.7,6.83,4.99,8.01.39.11.79.21,1.18.31,2.09.54,4.25,1.09,5.76,2.64.49.51.63.95.58,1.09-.03.08-.25.21-.85.21h-14.86c-2.49,0-4.38-.1-5.96-1.45-2.66-2.25-3.96-5.27-5.34-8.46l-.23-.52c-1.77-4.09-3.38-7.34-5.06-10.23-4.37-7.5-9.66-12.95-15.72-16.2-4.78-2.56-10.74-4.03-16.33-4.03-6.75,0-13.02,2.07-18.14,6-5.14,3.94-8,9.69-8.08,16.18-.08,7.25,3.42,14.61,9.13,19.2,3.63,2.92,8.46,4.53,13.59,4.53.49,0,.99-.01,1.48-.04,5.74-.33,10.79-2.79,13.84-6.75,2.5-3.24,3.42-7.27,2.6-11.35-.69-3.43-2.73-6.43-5.43-8.02-1.83-1.07-4.11-1.62-6.78-1.62h-.04c-3.09,0-5.47.78-7.07,2.32-2.23,2.16-2.59,5.99-.81,8.54.24.34.51.67.78.98.77.92,1.44,1.71,1.29,2.76-.13.88-.88,1.62-1.87,1.84-.25.05-.49.08-.75.08-1.55,0-2.91-1.06-3.77-1.95-3.2-3.3-4.2-8.56-2.45-12.81,2.43-5.86,8.95-8.48,14.33-8.48.19,0,.37,0,.56,0,7.83.27,15.3,5.37,18.59,12.7,3.2,7.13,2.33,16.02-2.21,22.65-4.49,6.57-12.48,10.34-21.9,10.34M1361.43,362.77c0,4.36-3.53,7.89-7.89,7.89s-7.88-3.53-7.88-7.89,3.53-7.88,7.88-7.88,7.89,3.53,7.89,7.88"/>
  </g>
  <g id="Debian">
    <rect class="cls-26" x="1472" y="252" width="256" height="256" rx="48" ry="48"/>
    <g>
      <path class="cls-15" d="M1611.76,384.25c-2.49.03.47,1.28,3.72,1.78.9-.7,1.71-1.41,2.43-2.1-2.02.5-4.08.51-6.15.32"/>
      <path class="cls-15" d="M1625.1,380.92c1.48-2.04,2.56-4.28,2.94-6.59-.33,1.65-1.23,3.07-2.07,4.57-4.65,2.93-.44-1.74,0-3.51-5,6.29-.69,3.77-.87,5.53"/>
      <path class="cls-15" d="M1630.03,368.11c.3-4.48-.88-3.06-1.28-1.35.46.24.83,3.15,1.28,1.35"/>
      <path class="cls-15" d="M1602.34,306.94c1.33.24,2.87.42,2.65.74,1.45-.32,1.78-.61-2.65-.74"/>
      <path class="cls-15" d="M1604.99,307.67l-.94.19.87-.08.07-.12"/>
      <path class="cls-15" d="M1646.35,369.81c.15,4.02-1.18,5.97-2.37,9.42l-2.15,1.07c-1.76,3.41.17,2.17-1.09,4.88-2.74,2.44-8.33,7.63-10.11,8.11-1.3-.03.88-1.54,1.17-2.13-3.67,2.52-2.95,3.79-8.57,5.32l-.16-.37c-13.86,6.52-33.1-6.4-32.85-24.03-.15,1.12-.42.84-.73,1.29-.72-9.07,4.19-18.18,12.46-21.9,8.09-4,17.57-2.36,23.37,3.04-3.18-4.17-9.52-8.59-17.03-8.17-7.35.12-14.23,4.79-16.53,9.86-3.77,2.37-4.2,9.14-5.85,10.38-2.21,16.23,4.15,23.25,14.92,31.5,1.69,1.14.48,1.32.71,2.19-3.58-1.67-6.85-4.2-9.55-7.3,1.43,2.09,2.97,4.12,4.96,5.72-3.37-1.14-7.88-8.17-9.19-8.46,5.81,10.41,23.59,18.25,32.89,14.36-4.31.16-9.78.09-14.61-1.7-2.03-1.05-4.8-3.21-4.3-3.62,12.7,4.74,25.82,3.59,36.81-5.22,2.8-2.18,5.85-5.88,6.73-5.93-1.33,2,.23.96-.79,2.73,2.79-4.49-1.21-1.83,2.88-7.76l1.51,2.08c-.56-3.73,4.63-8.26,4.1-14.16,1.19-1.8,1.33,1.94.07,6.09,1.75-4.6.46-5.34.91-9.14.49,1.28,1.13,2.63,1.45,3.98-1.14-4.45,1.17-7.49,1.75-10.08-.56-.25-1.76,1.97-2.04-3.29.04-2.28.63-1.2.86-1.76-.45-.26-1.62-2.01-2.34-5.36.52-.79,1.39,2.04,2.09,2.16-.45-2.67-1.24-4.7-1.27-6.75-2.06-4.31-.73.57-2.4-1.85-2.19-6.84,1.82-1.59,2.09-4.7,3.33,4.82,5.22,12.28,6.09,15.38-.66-3.77-1.74-7.42-3.05-10.96,1.01.42-1.63-7.76,1.31-2.34-3.14-11.55-13.44-22.35-22.91-27.41,1.16,1.06,2.62,2.39,2.1,2.6-4.71-2.81-3.88-3.02-4.56-4.21-3.84-1.56-4.09.13-6.63,0-7.23-3.84-8.63-3.43-15.29-5.83l.3,1.41c-4.79-1.6-5.58.61-10.76,0-.32-.25,1.66-.89,3.28-1.13-4.63.61-4.42-.91-8.95.17,1.12-.78,2.3-1.3,3.49-1.97-3.78.23-9.02,2.2-7.4.41-6.16,2.75-17.11,6.61-23.25,12.37l-.19-1.29c-2.81,3.38-12.27,10.09-13.03,14.47l-.75.18c-1.46,2.48-2.41,5.29-3.57,7.84-1.92,3.26-2.81,1.26-2.54,1.77-3.77,7.64-5.64,14.06-7.26,19.32,1.15,1.72.03,10.37.46,17.29-1.89,34.17,23.98,67.35,52.26,75,4.15,1.48,10.31,1.43,15.55,1.58-6.19-1.77-6.99-.94-13.01-3.04-4.35-2.05-5.3-4.38-8.38-7.06l1.22,2.15c-6.04-2.14-3.51-2.64-8.42-4.2l1.3-1.7c-1.96-.15-5.18-3.3-6.07-5.04l-2.14.08c-2.57-3.17-3.94-5.46-3.84-7.23l-.69,1.23c-.78-1.35-9.46-11.9-4.96-9.45-.84-.76-1.95-1.24-3.15-3.44l.92-1.05c-2.17-2.79-3.99-6.36-3.85-7.55,1.16,1.56,1.96,1.85,2.75,2.12-5.47-13.58-5.78-.75-9.93-13.82l.88-.07c-.67-1.01-1.08-2.11-1.62-3.19l.38-3.8c-3.94-4.56-1.1-19.37-.53-27.5.39-3.3,3.29-6.82,5.49-12.34l-1.34-.23c2.56-4.47,14.64-17.96,20.24-17.27,2.71-3.4-.54-.01-1.07-.87,5.95-6.16,7.82-4.35,11.84-5.46,4.33-2.57-3.72,1-1.66-.98,7.49-1.91,5.31-4.35,15.08-5.32,1.03.59-2.39.91-3.25,1.67,6.24-3.05,19.74-2.36,28.52,1.69,10.18,4.76,21.61,18.82,22.07,32.05l.51.14c-.26,5.26.8,11.34-1.04,16.93l1.26-2.64"/>
      <path class="cls-15" d="M1584.64,387.66l-.35,1.74c1.63,2.22,2.93,4.62,5.02,6.36-1.5-2.93-2.62-4.14-4.67-8.1"/>
      <path class="cls-15" d="M1588.5,387.51c-.86-.96-1.38-2.11-1.95-3.25.55,2.02,1.67,3.75,2.71,5.51l-.76-2.25"/>
      <path class="cls-15" d="M1656.83,372.66l-.37.92c-.67,4.76-2.11,9.46-4.33,13.82,2.45-4.6,4.03-9.64,4.7-14.74"/>
      <path class="cls-15" d="M1602.83,305.74c1.68-.62,4.13-.34,5.91-.74-2.32.2-4.64.31-6.92.61l1.01.14"/>
      <path class="cls-15" d="M1543.83,337.12c.39,3.59-2.7,4.98.68,2.61,1.81-4.08-.71-1.13-.68-2.61"/>
      <path class="cls-15" d="M1539.86,353.71c.78-2.39.92-3.83,1.22-5.21-2.15,2.75-.99,3.34-1.22,5.21"/>
    </g>
  </g>
  <g id="Arch">
    <rect class="cls-27" x="192" y="572" width="256" height="256" rx="48" ry="48"/>
    <path id="path2518" class="cls-8" d="M319.99,624.99c-6.68,16.37-10.71,27.08-18.14,42.97,4.56,4.83,10.15,10.46,19.24,16.81-9.77-4.02-16.43-8.06-21.41-12.24-9.51,19.85-24.42,48.14-54.67,102.49,23.78-13.73,42.21-22.19,59.38-25.42-.74-3.17-1.16-6.6-1.13-10.18l.03-.76c.38-15.23,8.3-26.95,17.69-26.15,9.39.8,16.68,13.8,16.31,29.03-.07,2.87-.39,5.62-.96,8.18,16.99,3.32,35.22,11.76,58.68,25.31-4.62-8.51-8.75-16.19-12.7-23.5-6.21-4.81-12.69-11.08-25.9-17.86,9.08,2.36,15.58,5.08,20.65,8.12-40.08-74.62-43.33-84.54-57.07-116.8Z"/>
  </g>
  <g id="Chimera">
    <rect class="cls-42" x="512" y="572" width="256" height="256" rx="48" ry="48"/>
    <g>
      <path class="cls-15" d="M565,659.28v-34.28h61.82v25.98l-1.73.48c-4.38,1.22-11.01,4.59-15.21,7.73-10.42,7.8-17.5,19.12-19.82,31.69-.25,1.35-.45,2.5-.45,2.56s-5.54.11-12.3.11h-12.3v-34.28Z"/>
      <path class="cls-15" d="M636.19,738.78c-9.32-1.18-16.78-4.68-23.17-10.86-5.8-5.62-9.47-12.21-11.15-20.07-.93-4.32-.92-11.41.01-15.76,1.67-7.79,5.48-14.6,11.29-20.15,5.95-5.68,13.39-9.36,20.96-10.35,1.38-.18,2.67-.37,2.87-.43.29-.08.37-3.96.37-18.13v-18.03h14.65v50.98h-6.85c-4.83,0-7.6.13-9.42.45-11.21,1.95-19.77,12.17-19.77,23.58,0,2.59.8,6.59,1.8,8.99,6.69,16.06,27.41,20.09,39.4,7.66,2.18-2.26,3.38-4.02,4.65-6.79,1.81-3.95,1.98-5.11,2.13-13.89l.13-7.98h50.92v14.65h-18.03c-14.17,0-18.05.08-18.13.37-.06.2-.25,1.49-.43,2.87-1.47,11.23-8.94,22.09-19.24,27.97-3.25,1.85-7.64,3.51-11.27,4.25-2.98.61-9.38.99-11.72.69h0Z"/>
      <path class="cls-15" d="M646.45,762.7c0-6.77.06-12.3.13-12.3s1.54-.27,3.26-.6c12.17-2.35,23.27-9.41,31.05-19.77,2.59-3.45,6.09-10.21,7.32-14.15l.84-2.69h25.95v61.82h-68.55v-12.3Z"/>
      <path class="cls-15" d="M565,740.72v-34.28h12.14c8.57,0,12.2.1,12.34.32.11.18.44,1.55.73,3.04,3.56,18.37,17.77,33.9,35.66,38.95,2.01.57,6.94,1.63,7.57,1.63.06,0,.11,5.54.11,12.3v12.3h-68.55v-34.28Z"/>
    </g>
  </g>
  <g id="Alpine">
    <rect class="cls-25" x="832" y="572" width="256" height="256" rx="48" ry="48"/>
    <path class="cls-15" d="M936.17,718.31v-18.26l-13.14,13.14c1.42.98,2.74,1.79,4,2.45,1.26.66,2.43,1.16,3.52,1.56,1.09.39,2.1.65,3.05.83.93.17,1.79.25,2.57.26M1003.38,716.78s.15.13.39.28c.24.15.58.35,1.04.54.46.19,1.03.38,1.72.52.69.14,1.5.23,2.44.23.78,0,1.64-.07,2.58-.23.94-.17,1.97-.43,3.07-.81,1.11-.39,2.3-.9,3.57-1.56,1.27-.67,2.63-1.49,4.07-2.49l-9.97-9.77-33.02-33.14-14.53,14.53-19.53-20.12-49.07,48.49c1.44,1,2.79,1.81,4.06,2.49,1.27.66,2.47,1.17,3.57,1.56,1.11.39,2.13.65,3.07.81.94.17,1.8.23,2.58.23.93,0,1.74-.09,2.44-.23.69-.14,1.27-.33,1.72-.52.46-.19.81-.38,1.04-.54s.37-.26.39-.28l22.21-22.21,7.92-7.59,21.98,21.98,7.66,7.88s.15.13.39.28c.24.15.58.35,1.04.54.46.19,1.03.38,1.72.52.69.14,1.51.23,2.44.23.78,0,1.64-.07,2.58-.23.94-.17,1.97-.43,3.07-.81,1.11-.39,2.3-.9,3.57-1.56,1.27-.67,2.63-1.49,4.07-2.49l-17.56-17.21,3.28-3.28,15.23,15.23,8.88,8.8M1003.31,625l43.26,75-43.26,75h-86.63l-43.26-75,43.26-75h86.63Z"/>
  </g>
  <g id="Gentoo">
    <rect class="cls-37" x="1152" y="572" width="256" height="256" rx="48" ry="48"/>
    <g id="Ebene-1">
      <g id="g5680">
        <path id="path2973" class="cls-10" d="M1208.37,744.61c.02-6.33,5.4-15.16,13.04-23.19,5.11-5.36,10.3-10.07,21.6-19.71-7.82-4.29-19.99-9.47-26.09-16.25-2.26-2.51-6.35-8.19-5.56-15.79,1.62-15.48,20.73-38.97,47.89-43.94,9.04-1.65,19.41-.46,27.95,3.38,26.79,12.04,59.55,41.97,63.58,56.58,1.42,5.14,1.15,13.34-1.3,17.91-3.03,5.66-13.53,17.16-27.89,29.03-22.53,18.62-54.1,38.61-77.67,41.98-7.62,1.09-15.4-.05-20.86-3.13-8.55-4.82-11.38-11.26-12.38-13.19-2.65-5.13-2.32-11.63-2.32-13.67h0ZM1271.78,673.52c.29-3.59,14.36-.02,13.47,2.83-.94,3-13.8,1.29-13.47-2.83Z"/>
        <g id="mid">
          <path id="path2975" class="cls-6" d="M1250.63,695.78c-7.4,6.25-12.33,10.47-18.5,16.11-14.86,13.58-24.96,23.92-19.75,38.06,6.01,16.3,19.17,15.48,34.61,12.45,39.79-7.85,105.2-58.13,101.87-76.71-2.7-15.03-39.24-44.91-60.88-55.54-6.76-3.32-14.55-5.04-22.36-4.67-29.75,1.4-52.99,28.49-51.8,43.17,1.15,14.28,37.24,26.72,36.82,27.15h0ZM1246.16,645.93c-8.95,9.96-3.23,29.23,11.62,39.74,17.37,12.29,45.5,14.52,51.1,5.04,10.44-17.68-.96-36.37-17.98-44.71-16.82-8.24-39.16-6.27-44.74-.06h0Z"/>
          <path id="path4976" class="cls-9" d="M1276.69,685.25c12.57,1.75,23.4-3.29,25.1-15.7,1.29-9.45-13.18-19.78-21.88-22.16-7.26-1.99-23.03.57-24.1,14.31-1.11,14.28,13.55,22.54,20.88,23.55h0ZM1270.54,661.5c-8.26,12.8,11.99,16.73,15.09,14.4,13.37-10.06-11.45-20.03-15.09-14.4Z"/>
        </g>
        <path id="path2977" class="cls-11" d="M1263.21,628.87c-14.61,1.54-17.41,3.42-30.64,13.43-4.44,3.36-12.6,11.52-14.69,21.21-.8,3.69.15,6.88,2.8,9.11,8.51,7.15,22.75,12.96,34.43,18.57,3.42,1.64,1.16,4.62-4.36,9.4-13.93,12.06-32.75,26.73-34.07,37.91-.62,5.27,1.18,12.43,7.58,16.09,7.47,4.28,22.98,1.49,33.34-2.37,15.13-5.64,35.01-18.07,50.8-30.3,16.41-12.71,31.67-28.86,32.43-31.49.93-3.23.83-6.22-.95-9.66-2.81-5.39-6.56-9.4-10.6-13.89-10.82-11.41-22.27-21.43-35.96-29.11-9.89-5.55-18.59-10.13-30.09-8.91h0ZM1284.67,654.44c10.56,5.1,21.39,18.51-.09,26.22-5.84,2.1-24.38-5.15-23.81-15.05.83-14.62,11.01-17.41,23.9-11.18h0Z"/>
      </g>
    </g>
  </g>
  <g id="Slackware">
    <rect class="cls-23" x="1472" y="572" width="256" height="256" rx="48" ry="48"/>
    <g id="g13243">
      <path id="path19860" class="cls-19" d="M1685.97,709.11c0,41.91-38.44,75.89-85.87,75.89s-85.87-33.98-85.87-75.89h0c0-41.91,38.44-75.89,85.87-75.89s85.87,33.98,85.87,75.89Z"/>
      <path id="path3196" class="cls-23" d="M1685.34,703.76c0,42.32-38.35,76.63-85.65,76.63s-85.65-34.31-85.65-76.63,38.35-76.63,85.65-76.63,85.65,34.31,85.65,76.63Z"/>
      <path id="path2223" class="cls-17" d="M1683.58,699.37c.02,40.01-37.75,72.45-84.35,72.46-46.6.02-84.39-32.4-84.41-72.41,0-.02,0-.04,0-.05-.02-40.01,37.75-72.45,84.35-72.46,46.6-.02,84.39,32.4,84.41,72.41v.05Z"/>
      <g id="g13231">
        <g id="text4231" class="cls-18">
          <text class="cls-21" transform="translate(1553.39 724.41) scale(1.25 1)"><tspan x="0" y="0">S</tspan></text>
          <text class="cls-3" transform="translate(1553.39 724.41) scale(1.25 1)"><tspan x="0" y="0">S</tspan></text>
        </g>
        <g id="text9155" class="cls-18">
          <text class="cls-22" transform="translate(1553.39 724.41) scale(1.25 1)"><tspan x="0" y="0">S</tspan></text>
        </g>
        <g id="text24847" class="cls-18">
          <text class="cls-20" transform="translate(1553.39 724.41) scale(1.25 1)"><tspan x="0" y="0">S</tspan></text>
        </g>
        <g id="text6114" class="cls-18">
          <text class="cls-24" transform="translate(1553.39 724.41) scale(1.25 1)"><tspan x="0" y="0">S</tspan></text>
        </g>
      </g>
      <path id="path8114" class="cls-7" d="M1600.95,630.59c-47.5.81-80.29,31.59-80.53,63.36,50.25,14.14,106.94,15,158.44-2.36-4.41-35.35-41.23-61.62-77.9-61Z"/>
      <g id="g13227">
        <path id="path26797" class="cls-4" d="M1551.12,713.84l.65,29.43h101.81"/>
        <path id="path26799" class="cls-5" d="M1550.43,714.19l.65,29.43h101.81"/>
      </g>
    </g>
  </g>
  <text id="Copyright" class="cls-16" transform="translate(623.6 1003.55)"><tspan x="0" y="0">Ne</tspan><tspan class="cls-31" x="42.02" y="0">r</tspan><tspan class="cls-33" x="54.18" y="0">c</tspan><tspan x="71.04" y="0">one (ネルコン) / </tspan><tspan class="cls-33" x="323.2" y="0">A</tspan><tspan x="345.24" y="0">do</tspan><tspan class="cls-41" x="383.61" y="0">b</tspan><tspan x="403.2" y="0">e </tspan><tspan class="cls-35" x="430.3" y="0">I</tspan><tspan class="cls-36" x="439.29" y="0">l</tspan><tspan x="447.74" y="0">lu</tspan><tspan class="cls-34" x="475.19" y="0">s</tspan><tspan x="490.62" y="0">t</tspan><tspan class="cls-32" x="505.82" y="0">r</tspan><tspan class="cls-29" x="518.87" y="0">a</tspan><tspan class="cls-30" x="535.55" y="0">t</tspan><tspan x="550.2" y="0">or 2025</tspan></text>
</svg>