<?xml version="1.0" encoding="UTF-8"?>
<svg id="Layer_1" data-name="Layer 1" xmlns="http://www.w3.org/2000/svg" xmlns:xlink="http://www.w3.org/1999/xlink" viewBox="0 0 1920 1080">
  <defs>
    <style>
      .cls-1 {
        fill: none;
      }

      .cls-1, .cls-2 {
        stroke: #333;
        stroke-miterlimit: 10;
        stroke-width: 16px;
      }

      .cls-3 {
        fill: #ff9a00;
      }

      .cls-2, .cls-4 {
        fill: #fff;
      }

      .cls-5 {
        fill: #001e36;
      }

      .cls-6 {
        fill: #31a8ff;
      }

      .cls-4 {
        font-family: SFPro-Regular, 'SF Pro';
        font-size: 96px;
        font-variation-settings: 'wdth' 100, 'opsz' 28, 'wght' 400;
      }

      .cls-7 {
        fill: #99f;
      }

      .cls-8 {
        fill: #300;
      }

      .cls-9 {
        letter-spacing: -.02em;
      }

      .cls-10 {
        letter-spacing: -.02em;
      }

      .cls-11 {
        fill: #1a1a1a;
      }

      .cls-12 {
        fill: #00005b;
      }

      .cls-13 {
        letter-spacing: .02em;
      }

      .cls-14 {
        clip-path: url(#clippath);
      }
    </style>
    <clipPath id="clippath">
      <rect class="cls-11" x="0" y="0" width="1920" height="1080"/>
    </clipPath>
  </defs>
  <g id="BG">
    <rect class="cls-11" x="0" y="0" width="1920" height="1080"/>
    <g>
      <rect class="cls-11" x="0" y="0" width="1920" height="1080"/>
      <g class="cls-14">
        <g>
          <circle class="cls-1" cx="1472" cy="1052" r="500"/>
          <circle class="cls-1" cx="472" cy="52" r="500"/>
          <line class="cls-2" x1="825.55" y1="405.55" x2="1118.45" y2="698.45"/>
          <line class="cls-2" x1="1118.45" y1="698.45" x2="1118.45" y2="-540"/>
          <line class="cls-2" x1="825.55" y1="1620" x2="825.55" y2="405.55"/>
        </g>
      </g>
    </g>
  </g>
  <g>
    <g id="Adobe_Illustrator" data-name="Adobe Illustrator">
      <g id="Layer_2" data-name="Layer 2">
        <g id="Surfaces">
          <g id="Drawing_Surface" data-name="Drawing Surface">
            <g id="Outline_no_shadow" data-name="Outline no shadow">
              <rect class="cls-8" x="508.72" y="572" width="262.56" height="256" rx="42.5" ry="42.5"/>
            </g>
          </g>
        </g>
      </g>
      <g id="New_Points_Modified" data-name="New Points Modified">
        <g>
          <path class="cls-3" d="M694.43,656.3c-2.44.01-4.84-.61-6.96-1.81-1-.59-1.92-1.3-2.72-2.14-4.24-4.78-4.96-11.73-1.79-17.27.57-.93,1.26-1.79,2.05-2.54,2.44-2.34,5.66-3.69,9.04-3.79,1.68-.07,3.36.1,4.99.5,1.44.36,2.8.98,4.02,1.83.6.43,1.17.92,1.68,1.45,1.99,2.14,3.23,4.87,3.54,7.77.38,2.97-.09,5.99-1.37,8.7-.61,1.22-1.4,2.35-2.35,3.34-2.7,2.63-6.36,4.06-10.13,3.94Z"/>
          <path class="cls-3" d="M682.27,751.17v-84.23c0-1.09.47-1.59,1.41-1.59h21.66c.94,0,1.41.53,1.41,1.59v84.23c0,1.18-.47,1.76-1.41,1.76h-21.49c-1.06-.01-1.59-.58-1.59-1.76h0Z"/>
          <g id="Outlined_Mnemonics_Logos" data-name="Outlined Mnemonics Logos">
            <g id="Ai">
              <path class="cls-3" d="M635.95,725.63h-40.69l-8.28,25.71c-.23.97-1.12,1.64-2.11,1.59h-20.61c-1.17,0-1.59-.65-1.23-1.94l35.23-101.45s.72-2.02,1.09-3.61c.46-2.35.7-4.74.71-7.13-.07-.61.37-1.16.98-1.23.08,0,.15,0,.23,0h28.03c.82,0,1.23.28,1.41.87l39.99,112.73c.35,1.18,0,1.76-1.09,1.76h-22.91c-.81.09-1.56-.43-1.76-1.23l-8.98-26.07ZM601.61,703.44h27.82c-.7-2.34-1.52-4.99-2.46-7.92s-8.19-26.03-9.07-29.16-1.67-5.95-2.38-8.54h-.18c-.99,4.76-2.22,9.46-3.7,14.09-1.64,5.29-3.31,10.69-5.02,16.21-1.71,5.52-3.38,10.63-5.01,15.32Z"/>
            </g>
          </g>
        </g>
      </g>
    </g>
    <g id="Adobe_Photoshop" data-name="Adobe Photoshop">
      <g id="Surfaces-2" data-name="Surfaces">
        <g id="Photo_Surface" data-name="Photo Surface">
          <g id="Outline_no_shadow-2" data-name="Outline no shadow">
            <path class="cls-5" d="M875.21,572h169.57c25.71,0,46.5,20.79,46.5,46.5v163.01c0,25.71-20.79,46.5-46.5,46.5h-169.57c-25.71,0-46.5-20.79-46.5-46.5v-163.01c0-25.71,20.79-46.5,46.5-46.5Z"/>
          </g>
        </g>
      </g>
      <g id="Outlined_Mnemonics_Logos-2" data-name="Outlined Mnemonics Logos">
        <g id="Ps">
          <path class="cls-6" d="M887.79,751.53v-112.57c0-.77.33-1.2,1.09-1.2,1.86,0,3.61,0,6.13-.11,2.63-.11,5.36-.11,8.31-.22,2.95-.11,6.13-.11,9.52-.22,3.39-.11,6.67-.11,9.96-.11,8.97,0,16.41,1.09,22.54,3.39,5.47,1.86,10.5,4.92,14.66,8.97,3.5,3.5,6.24,7.77,7.99,12.47,1.64,4.59,2.52,9.3,2.52,14.22,0,9.41-2.19,17.18-6.56,23.3s-10.5,10.72-17.61,13.35c-7.44,2.74-15.64,3.72-24.62,3.72-2.63,0-4.38,0-5.47-.11s-2.63-.11-4.7-.11v35.12c.11.77-.44,1.42-1.2,1.53h-21.22c-.88,0-1.31-.44-1.31-1.42ZM911.64,658.86v36.76c1.53.11,2.95.22,4.27.22h5.8c4.27,0,8.53-.66,12.58-1.97,3.5-.98,6.56-3.06,8.97-5.8,2.3-2.74,3.39-6.45,3.39-11.27.11-3.39-.77-6.78-2.52-9.74-1.86-2.84-4.49-5.03-7.66-6.24-4.05-1.64-8.42-2.3-12.91-2.19-2.84,0-5.36,0-7.44.11-2.19-.11-3.72,0-4.49.11h0Z"/>
          <path class="cls-6" d="M1038.77,688.95c-3.28-1.75-6.78-2.95-10.5-3.72-4.05-.88-8.1-1.42-12.25-1.42-2.19-.11-4.49.22-6.56.77-1.42.33-2.63,1.09-3.39,2.19-.55.88-.88,1.97-.88,2.95s.44,1.97,1.09,2.84c.98,1.2,2.3,2.19,3.72,2.95,2.52,1.31,5.14,2.52,7.77,3.61,5.91,1.97,11.6,4.7,16.85,7.99,3.61,2.3,6.56,5.36,8.64,9.08,1.75,3.5,2.63,7.33,2.52,11.27.11,5.14-1.42,10.28-4.27,14.55-3.06,4.38-7.33,7.77-12.25,9.74-5.36,2.3-11.92,3.5-19.8,3.5-5.03,0-9.96-.44-14.88-1.42-3.83-.66-7.66-1.86-11.16-3.5-.77-.44-1.31-1.2-1.2-2.08v-19.04c0-.33.11-.77.44-.98.33-.22.66-.11.98.11,4.27,2.52,8.75,4.27,13.57,5.36,4.16,1.09,8.53,1.64,12.91,1.64s7.11-.55,9.08-1.53c1.75-.77,2.95-2.63,2.95-4.59,0-1.53-.88-2.95-2.63-4.38-1.75-1.42-5.36-3.06-10.72-5.14-5.58-1.97-10.72-4.59-15.54-7.88-3.39-2.41-6.24-5.58-8.31-9.3-1.75-3.5-2.63-7.33-2.52-11.16,0-4.7,1.31-9.19,3.72-13.24,2.74-4.38,6.78-7.88,11.49-10.06,5.14-2.63,11.6-3.83,19.36-3.83,4.49,0,9.08.33,13.57.98,3.28.44,6.45,1.31,9.41,2.52.44.11.88.55,1.09.98.11.44.22.88.22,1.31v17.83c0,.44-.22.88-.55,1.09-.98.22-1.53.22-1.97,0Z"/>
        </g>
      </g>
    </g>
    <g id="Adobe_Premire_Pro" data-name="Adobe Premire Pro">
      <g id="vlpb">
        <g id="vlpc">
          <g id="vlpd">
            <path class="cls-12" d="M1195.21,572h169.57c25.71,0,46.5,20.79,46.5,46.5v163.01c0,25.71-20.79,46.5-46.5,46.5h-169.57c-25.71,0-46.5-20.79-46.5-46.5v-163.01c0-25.71,20.79-46.5,46.5-46.5Z"/>
          </g>
        </g>
      </g>
      <g id="vlpe">
        <g id="vlpf">
          <path class="cls-7" d="M1211.08,751.42v-112.68c0-.77.33-1.2,1.09-1.2,1.86,0,3.61,0,6.13-.11,2.63-.11,5.36-.11,8.31-.22s6.13-.11,9.52-.22,6.67-.11,9.96-.11c8.97,0,16.41,1.09,22.54,3.39,5.47,1.86,10.5,4.92,14.66,8.97,3.5,3.5,6.24,7.77,7.99,12.47,1.64,4.59,2.52,9.3,2.52,14.22,0,9.41-2.19,17.18-6.56,23.3s-10.5,10.72-17.61,13.35c-7.44,2.74-15.64,3.72-24.62,3.72-2.63,0-4.38,0-5.47-.11s-2.63-.11-4.7-.11v35.12c.11.77-.44,1.42-1.2,1.53h-21.22c-.88,0-1.31-.44-1.31-1.42v.11ZM1234.93,658.76v36.76c1.53.11,2.95.22,4.27.22h5.8c4.27,0,8.53-.66,12.58-1.97,3.5-.98,6.56-3.06,8.97-5.8,2.3-2.74,3.39-6.45,3.39-11.27.11-3.39-.77-6.78-2.52-9.74-1.86-2.84-4.49-5.03-7.66-6.24-4.05-1.64-8.42-2.3-12.91-2.19-2.84,0-5.36,0-7.44.11-2.19-.11-3.72,0-4.49.11h0Z"/>
          <path class="cls-7" d="M1309.54,665.21h19.15c1.09,0,1.97.77,2.3,1.75.33.88.55,1.75.66,2.74.22,1.09.44,2.3.55,3.39.11,1.2.22,2.52.22,3.94,3.28-3.83,7.22-7,11.71-9.41,5.03-2.84,10.83-4.27,16.63-4.27.77-.11,1.42.44,1.53,1.2v21.77c0,.88-.55,1.2-1.75,1.2-3.94-.11-7.99.22-11.82,1.09-3.17.66-6.24,1.64-9.19,2.95-2.08.98-4.05,2.3-5.58,4.05v55.79c0,1.09-.44,1.53-1.42,1.53h-21.55c-.88.11-1.64-.44-1.75-1.31v-61.05c0-2.63,0-5.36-.11-8.21-.11-2.84-.11-5.69-.22-8.53,0-2.52-.22-4.92-.44-7.44-.11-.55.22-1.09.77-1.2,0-.11.22-.11.33,0h0Z"/>
        </g>
      </g>
    </g>
  </g>
  <text id="Title" class="cls-4" transform="translate(598.78 385.65)"><tspan x="0" y="0">Ne</tspan><tspan class="cls-9" x="116.3" y="0">r</tspan><tspan x="143.53" y="0">cone A</tspan><tspan class="cls-13" x="423" y="0">r</tspan><tspan x="454.92" y="0">twor</tspan><tspan class="cls-10" x="633.05" y="0">k</tspan><tspan x="677.77" y="0">s</tspan></text>
</svg>