<?xml version="1.0" encoding="UTF-8"?>
<svg id="Layer_1" data-name="Layer 1" xmlns="http://www.w3.org/2000/svg" xmlns:xlink="http://www.w3.org/1999/xlink" viewBox="0 0 1920 1080">
  <defs>
    <style>
      .cls-1, .cls-2, .cls-3, .cls-4, .cls-5 {
        fill: none;
      }

      .cls-6 {
        fill: gray;
        font-size: 20px;
      }

      .cls-6, .cls-7, .cls-8, .cls-9, .cls-10 {
        font-family: MPLUS2-Regular, 'M PLUS 2';
        font-variation-settings: 'wght' 400;
      }

      .cls-11 {
        font-size: 12px;
      }

      .cls-11, .cls-12, .cls-7, .cls-8, .cls-13, .cls-14, .cls-15, .cls-9, .cls-16 {
        fill: #fff;
      }

      .cls-17 {
        isolation: isolate;
        opacity: .99;
      }

      .cls-12 {
        fill-rule: evenodd;
      }

      .cls-18 {
        fill: #3c3c3c;
      }

      .cls-2, .cls-3, .cls-4, .cls-13, .cls-16 {
        stroke-miterlimit: 10;
      }

      .cls-2, .cls-4, .cls-5, .cls-16 {
        stroke: #fff;
      }

      .cls-2, .cls-16 {
        stroke-width: 8px;
      }

      .cls-19 {
        fill: #777bb3;
      }

      .cls-20 {
        fill: #f05138;
      }

      .cls-3, .cls-13 {
        stroke: #333;
        stroke-width: 16px;
      }

      .cls-7 {
        font-size: 84px;
      }

      .cls-4, .cls-5 {
        stroke-width: 4px;
      }

      .cls-8 {
        font-size: 36px;
      }

      .cls-21 {
        fill: #ff9d00;
      }

      .cls-22 {
        fill: #0071bc;
      }

      .cls-14, .cls-9 {
        font-size: 24px;
      }

      .cls-14, .cls-23 {
        font-family: SFPro-Regular, 'SF Pro';
        font-variation-settings: 'wdth' 100, 'opsz' 28, 'wght' 400;
      }

      .cls-24 {
        clip-path: url(#clippath-1);
      }

      .cls-25 {
        letter-spacing: 0em;
      }

      .cls-26 {
        letter-spacing: 0em;
      }

      .cls-27 {
        fill: #e44d26;
      }

      .cls-28 {
        letter-spacing: 0em;
      }

      .cls-29 {
        letter-spacing: 0em;
      }

      .cls-5 {
        stroke-linecap: round;
        stroke-linejoin: round;
      }

      .cls-30 {
        letter-spacing: 0em;
      }

      .cls-31 {
        letter-spacing: 0em;
      }

      .cls-32 {
        font-family: SFPro-Bold, 'SF Pro';
        font-variation-settings: 'wdth' 100, 'opsz' 28, 'wght' 700;
        font-weight: 700;
      }

      .cls-10 {
        fill: #4d4d4d;
        font-size: 16px;
      }

      .cls-33 {
        letter-spacing: -.08em;
      }

      .cls-34 {
        letter-spacing: -.07em;
      }

      .cls-35 {
        letter-spacing: -.06em;
      }

      .cls-36 {
        letter-spacing: -.06em;
      }

      .cls-37 {
        letter-spacing: -.06em;
      }

      .cls-38 {
        letter-spacing: -.06em;
      }

      .cls-39 {
        letter-spacing: -.02em;
      }

      .cls-40 {
        letter-spacing: -.03em;
      }

      .cls-41 {
        letter-spacing: -.02em;
      }

      .cls-42 {
        letter-spacing: -.02em;
      }

      .cls-43 {
        letter-spacing: -.03em;
      }

      .cls-44 {
        letter-spacing: -.03em;
      }

      .cls-45 {
        letter-spacing: -.03em;
      }

      .cls-46 {
        letter-spacing: -.03em;
      }

      .cls-47 {
        letter-spacing: -.03em;
      }

      .cls-48 {
        letter-spacing: -.03em;
      }

      .cls-49 {
        letter-spacing: -.02em;
      }

      .cls-50 {
        letter-spacing: -.02em;
      }

      .cls-51 {
        letter-spacing: -.02em;
      }

      .cls-52 {
        letter-spacing: -.02em;
      }

      .cls-53 {
        letter-spacing: -.01em;
      }

      .cls-54 {
        letter-spacing: -.01em;
      }

      .cls-55 {
        letter-spacing: -.05em;
      }

      .cls-56 {
        letter-spacing: -.05em;
      }

      .cls-57 {
        letter-spacing: -.05em;
      }

      .cls-58 {
        letter-spacing: -.05em;
      }

      .cls-59 {
        letter-spacing: -.04em;
      }

      .cls-60 {
        letter-spacing: -.04em;
      }

      .cls-61 {
        letter-spacing: 0em;
      }

      .cls-62 {
        letter-spacing: 0em;
      }

      .cls-63 {
        letter-spacing: 0em;
      }

      .cls-64 {
        letter-spacing: 0em;
      }

      .cls-65 {
        letter-spacing: 0em;
      }

      .cls-66 {
        letter-spacing: -.01em;
      }

      .cls-67 {
        letter-spacing: -.01em;
      }

      .cls-68 {
        letter-spacing: -.01em;
      }

      .cls-69 {
        letter-spacing: 0em;
      }

      .cls-70 {
        letter-spacing: 0em;
      }

      .cls-71 {
        letter-spacing: 0em;
      }

      .cls-72 {
        letter-spacing: 0em;
      }

      .cls-73 {
        letter-spacing: 0em;
      }

      .cls-74 {
        letter-spacing: 0em;
      }

      .cls-75 {
        letter-spacing: 0em;
      }

      .cls-76 {
        letter-spacing: 0em;
      }

      .cls-77 {
        letter-spacing: 0em;
      }

      .cls-78 {
        letter-spacing: 0em;
      }

      .cls-79 {
        letter-spacing: 0em;
      }

      .cls-80 {
        letter-spacing: 0em;
      }

      .cls-81 {
        letter-spacing: 0em;
      }

      .cls-82 {
        letter-spacing: 0em;
      }

      .cls-83 {
        letter-spacing: 0em;
      }

      .cls-84 {
        letter-spacing: 0em;
      }

      .cls-85 {
        letter-spacing: 0em;
      }

      .cls-86 {
        letter-spacing: 0em;
      }

      .cls-87 {
        letter-spacing: 0em;
      }

      .cls-88 {
        letter-spacing: 0em;
      }

      .cls-89 {
        fill: #1a1a1a;
      }

      .cls-90 {
        letter-spacing: .02em;
      }

      .cls-91 {
        letter-spacing: .02em;
      }

      .cls-92 {
        letter-spacing: .02em;
      }

      .cls-93 {
        clip-path: url(#clippath);
      }

      .cls-94 {
        letter-spacing: .01em;
      }

      .cls-95 {
        letter-spacing: .01em;
      }

      .cls-96 {
        letter-spacing: .03em;
      }

      .cls-97 {
        letter-spacing: .03em;
      }

      .cls-98 {
        letter-spacing: .03em;
      }

      .cls-99 {
        letter-spacing: 0em;
      }

      .cls-100 {
        letter-spacing: 0em;
      }

      .cls-101 {
        letter-spacing: 0em;
      }

      .cls-102 {
        letter-spacing: 0em;
      }

      .cls-103 {
        letter-spacing: .01em;
      }

      .cls-104 {
        letter-spacing: 0em;
      }

      .cls-105 {
        letter-spacing: 0em;
      }
    </style>
    <clipPath id="clippath">
      <rect class="cls-89" x="0" y="0" width="1920" height="1080"/>
    </clipPath>
    <clipPath id="clippath-1">
      <rect class="cls-1" x="108" y="106.86" width="256" height="256" rx="48" ry="48"/>
    </clipPath>
  </defs>
  <g id="BG">
    <rect class="cls-89" x="0" y="0" width="1920" height="1080"/>
    <g>
      <rect class="cls-89" x="0" y="0" width="1920" height="1080"/>
      <g class="cls-93">
        <g>
          <circle class="cls-3" cx="1472" cy="1052" r="500"/>
          <circle class="cls-3" cx="472" cy="52" r="500"/>
          <line class="cls-13" x1="825.55" y1="405.55" x2="1118.45" y2="698.45"/>
          <line class="cls-13" x1="1118.45" y1="698.45" x2="1118.45" y2="-540"/>
          <line class="cls-13" x1="825.55" y1="1620" x2="825.55" y2="405.55"/>
        </g>
      </g>
    </g>
  </g>
  <g>
    <g>
      <rect class="cls-18" x="108" y="106.86" width="256" height="256" rx="48" ry="48"/>
      <g class="cls-24">
        <g>
          <circle class="cls-2" cx="364" cy="362.86" r="125"/>
          <circle class="cls-2" cx="114" cy="112.86" r="125"/>
          <line class="cls-16" x1="202.39" y1="201.25" x2="275.61" y2="274.48"/>
          <line class="cls-16" x1="275.61" y1="274.48" x2="275.61" y2="-35.14"/>
          <line class="cls-16" x1="202.39" y1="504.86" x2="202.39" y2="201.25"/>
        </g>
      </g>
    </g>
    <text class="cls-7" transform="translate(105.23 512.18)"><tspan x="0" y="0">Ne</tspan><tspan class="cls-60" x="110.29" y="0">r</tspan><tspan class="cls-72" x="142.21" y="0">c</tspan><tspan x="186.48" y="0">one</tspan></text>
    <text class="cls-9" transform="translate(106.74 434.41)"><tspan x="0" y="0">DiamondG</tspan><tspan class="cls-45" x="120.19" y="0">o</tspan><tspan class="cls-63" x="133.75" y="0">t</tspan><tspan class="cls-84" x="145.03" y="0">C</tspan><tspan class="cls-43" x="162.14" y="0">a</tspan><tspan class="cls-25" x="174.65" y="0">t</tspan></text>
  </g>
  <g>
    <g id="Python">
      <rect class="cls-22" x="1000" y="660" width="133.33" height="133.33" rx="32" ry="32"/>
      <g>
        <path id="path1948" class="cls-15" d="M1066.2,686.67c-3.26.02-6.38.29-9.12.78-8.08,1.43-9.54,4.41-9.54,9.92v7.27h19.09v2.42h-26.25c-5.55,0-10.4,3.33-11.92,9.68-1.75,7.27-1.83,11.81,0,19.4,1.36,5.65,4.6,9.68,10.14,9.68h6.56v-8.72c0-6.3,5.45-11.86,11.92-11.86h19.06c5.31,0,9.54-4.37,9.54-9.7v-18.17c0-5.17-4.36-9.06-9.54-9.92-3.28-.55-6.68-.79-9.94-.78ZM1055.87,692.52c1.97,0,3.58,1.64,3.58,3.65,0,2-1.61,3.63-3.58,3.63-1.98,0-3.58-1.62-3.58-3.63s1.6-3.65,3.58-3.65Z"/>
        <path id="path1950" class="cls-15" d="M1088.06,707.07v8.48c0,6.57-5.57,12.1-11.92,12.1h-19.06c-5.22,0-9.54,4.47-9.54,9.7v18.17c0,5.17,4.5,8.21,9.54,9.7,6.04,1.78,11.83,2.1,19.06,0,4.8-1.39,9.54-4.19,9.54-9.7v-7.27h-19.06v-2.42h28.61c5.55,0,7.61-3.87,9.54-9.68,1.99-5.98,1.91-11.73,0-19.4-1.37-5.52-3.99-9.68-9.54-9.68h-7.16ZM1077.34,753.09c1.98,0,3.58,1.62,3.58,3.63s-1.6,3.65-3.58,3.65-3.58-1.64-3.58-3.65,1.61-3.63,3.58-3.63Z"/>
      </g>
    </g>
    <g id="Swift">
      <rect class="cls-20" x="1166.67" y="660" width="133.33" height="133.33" rx="32" ry="32"/>
      <path class="cls-15" d="M1261.4,737.93s0,0,0,0c.11-.36.22-.72.31-1.09,3.98-15.87-5.74-34.64-22.2-44.52,7.21,9.78,10.4,21.62,7.57,31.97-.25.92-.56,1.81-.89,2.67-.36-.24-.82-.51-1.44-.85,0,0-16.37-10.11-34.11-27.98-.47-.47,9.46,14.19,20.73,26.09-5.31-2.98-20.1-13.74-29.46-22.31,1.15,1.92,2.52,3.77,4.02,5.54,7.82,9.92,18.02,22.15,30.23,31.55-8.58,5.25-20.71,5.66-32.79,0-2.99-1.4-5.79-3.09-8.39-5.01,5.11,8.18,12.98,15.23,22.57,19.35,11.43,4.91,22.79,4.58,31.25.08h0s.09-.04.13-.07c.35-.19.69-.38,1.03-.58,4.07-2.11,12.1-4.25,16.41,4.14,1.06,2.05,3.3-8.83-4.95-18.98Z"/>
    </g>
    <g id="HTML">
      <rect class="cls-27" x="1333.33" y="660" width="133.33" height="133.33" rx="32" ry="32"/>
      <path class="cls-15" d="M1352,715.47h7.46v7.4h6.88v-7.4h7.46v22.39h-7.46v-7.46h-6.81v7.46h-7.53M1383.66,722.94h-6.59v-7.46h20.67v7.46h-6.62v14.92h-7.46M1401.02,715.47h7.82l4.8,7.88,4.8-7.88h7.82v22.39h-7.46v-11.1l-5.22,8.05-5.22-8.05v11.1h-7.33M1429.96,715.47h7.46v14.99h10.58v7.4h-18.04"/>
    </g>
    <g id="PHP">
      <rect class="cls-19" x="1500" y="660" width="133.33" height="133.33" rx="32" ry="32"/>
      <g>
        <path class="cls-15" d="M1531.31,714.44h12.46c3.66.03,6.31,1.08,7.95,3.16,1.64,2.08,2.18,4.91,1.63,8.51-.22,1.64-.7,3.25-1.44,4.83-.71,1.58-1.7,3.01-2.97,4.28-1.55,1.61-3.21,2.63-4.97,3.07-1.77.43-3.6.65-5.49.65h-5.58l-1.77,8.83h-6.46l6.65-33.33h0M1536.75,719.74l-2.79,13.95c.19.03.37.05.56.05h.65c2.97.03,5.45-.26,7.44-.88,1.98-.65,3.32-2.91,4-6.79.56-3.25,0-5.13-1.67-5.62-1.64-.5-3.7-.73-6.18-.7-.37.03-.73.05-1.07.05h-.98l.05-.05"/>
        <path class="cls-15" d="M1560.71,705.56h6.41l-1.81,8.88h5.76c3.16.06,5.52.71,7.07,1.95,1.58,1.24,2.05,3.6,1.39,7.07l-3.11,15.48h-6.51l2.97-14.78c.31-1.55.22-2.65-.28-3.3-.5-.65-1.56-.98-3.21-.98l-5.16-.05-3.81,19.1h-6.41l6.69-33.38h0"/>
        <path class="cls-15" d="M1586.42,714.44h12.46c3.66.03,6.31,1.08,7.95,3.16,1.64,2.08,2.18,4.91,1.63,8.51-.22,1.64-.7,3.25-1.44,4.83-.71,1.58-1.7,3.01-2.97,4.28-1.55,1.61-3.21,2.63-4.97,3.07-1.77.43-3.6.65-5.49.65h-5.58l-1.77,8.83h-6.46l6.65-33.33h0M1591.86,719.74l-2.79,13.95c.19.03.37.05.56.05h.65c2.97.03,5.45-.26,7.44-.88,1.98-.65,3.32-2.91,4-6.79.56-3.25,0-5.13-1.67-5.62-1.64-.5-3.7-.73-6.18-.7-.37.03-.73.05-1.07.05h-.98l.05-.05"/>
      </g>
    </g>
    <g id="Transformers">
      <rect class="cls-21" x="1666.67" y="660" width="133.33" height="133.33" rx="32" ry="32"/>
      <g>
        <path class="cls-15" d="M1767,746.88c.36-.54.6-1.16.71-1.8.11-.64.08-1.3-.09-1.93-.24-.91-.74-1.67-1.41-2.21.32-.53.54-1.12.62-1.74.19-1.34-.25-2.68-1.25-3.77-.78-.85-1.88-1.32-3.1-1.32-.14,0-.29,0-.43.02.93-2.96,1.39-6.04,1.39-9.13,0-16.85-13.66-30.51-30.51-30.51s-30.52,13.66-30.52,30.51c0,3.09.46,6.16,1.38,9.11h-.03c-1.22,0-2.32.47-3.1,1.32-1,1.09-1.45,2.43-1.25,3.77.09.62.3,1.21.62,1.74-.67.54-1.17,1.3-1.41,2.21-.17.63-.2,1.29-.09,1.93.11.64.35,1.26.71,1.8-.06.1-.12.2-.18.31-.6,1.14-.64,2.44-.11,3.64.81,1.83,2.81,3.26,6.71,4.81,2.42.96,4.64,1.57,4.66,1.58,3.2.83,6.1,1.25,8.61,1.25,4.12,0,7.19-1.13,9.15-3.35,3.32.53,6.7.51,10.02-.06,1.96,2.26,5.05,3.41,9.2,3.41,2.51,0,5.41-.42,8.61-1.25.02,0,2.24-.62,4.66-1.58,3.89-1.54,5.9-2.98,6.71-4.81.53-1.2.49-2.5-.11-3.64-.05-.11-.12-.21-.18-.31ZM1726.68,751.64c-.17.3-.35.58-.54.86-.51.74-1.17,1.31-1.95,1.73-1.48.81-3.35,1.09-5.26,1.09-3.01,0-6.09-.7-7.82-1.15-.09-.02-10.59-2.99-9.26-5.52.22-.42.59-.59,1.06-.59,1.87,0,5.28,2.79,6.75,2.79.33,0,.56-.14.65-.48.62-2.24-9.49-3.18-8.64-6.43.15-.57.56-.81,1.13-.81,2.48,0,8.03,4.35,9.2,4.35.09,0,.15-.03.19-.08,0,0,.01-.02.01-.02.55-.9.23-1.56-3.51-3.85l-.36-.22c-4.11-2.49-7-3.99-5.36-5.77.19-.21.46-.3.78-.3.39,0,.85.13,1.37.35,2.17.92,5.18,3.41,6.44,4.5.2.17.39.35.59.52,0,0,1.59,1.66,2.56,1.66.22,0,.41-.09.54-.3.68-1.15-6.34-6.47-6.74-8.67-.27-1.49.19-2.24,1.03-2.24.4,0,.89.17,1.43.51,1.68,1.07,4.92,6.64,6.11,8.8.4.73,1.08,1.03,1.69,1.03,1.21,0,2.16-1.21.11-2.74-3.08-2.31-2-6.08-.53-6.31.06-.01.13-.02.19-.02,1.34,0,1.93,2.31,1.93,2.31,0,0,1.73,4.35,4.7,7.32,2.7,2.7,3.07,4.91,1.5,7.67ZM1736.3,752.15l-.15.02-.26.03c-.14.01-.28.03-.42.04h-.14s-.12.02-.12.02h-.18s-.19.03-.19.03h-.19s-.04.02-.04.02c-.05,0-.1,0-.15,0h-.06c-.06,0-.12,0-.18.01h-.21s-.19.02-.19.02h-.13s-.06,0-.06,0c-.04,0-.08,0-.12,0h-.06s-.08,0-.12,0h-.16s-.23,0-.23,0c-.18,0-.35,0-.53,0h-.14s-.08,0-.12,0h-.15s-.19-.01-.19-.01h-.17s-.04,0-.04,0h-.16s-.09-.01-.13-.02h-.1c-.13-.01-.26-.02-.39-.03h-.14c-.06-.02-.12-.02-.17-.03-.07,0-.14-.01-.2-.02-.11-.01-.23-.02-.34-.03h0c1.65-3.68.82-7.12-2.52-10.45-2.19-2.18-3.64-5.41-3.94-6.12-.61-2.1-2.23-4.43-4.91-4.43-.23,0-.45.02-.68.05-1.18.19-2.2.86-2.94,1.88-.79-.99-1.56-1.77-2.26-2.21-1.05-.67-2.1-1-3.12-1-1.27,0-2.41.52-3.21,1.47l-.02.02c-.02-.06-.03-.12-.04-.19h0c-.15-.65-.28-1.31-.38-1.96,0,0,0,0,0-.01,0-.05-.02-.1-.02-.15-.02-.15-.04-.29-.06-.44,0-.07-.02-.13-.03-.2l-.02-.2c0-.07-.01-.13-.02-.19v-.02c-.03-.26-.06-.52-.08-.78v-.1s-.02-.17-.02-.17c0-.05,0-.09,0-.14,0-.01,0-.02,0-.03,0-.13-.02-.26-.02-.39,0-.07,0-.14-.01-.2v-.18s0-.05,0-.05v-.17s0-.14,0-.14c0-.06,0-.11,0-.17,0-.06,0-.12,0-.18,0-.06,0-.12,0-.18,0-.06,0-.12,0-.18,0-15.11,12.25-27.36,27.37-27.36s27.36,12.25,27.36,27.36v.35c0,.06,0,.12,0,.18,0,.05,0,.1,0,.15,0,.04,0,.09,0,.13,0,.06,0,.11,0,.17h0s0,.2,0,.2c0,.06,0,.11,0,.17v.04s-.01.18-.01.18c-.02.38-.05.77-.09,1.15h0c0,.07-.01.13-.02.19l-.02.15-.03.29-.02.15-.02.17c0,.06-.02.13-.03.19,0,.07-.02.14-.03.21l-.02.17-.03.19c-.01.06-.02.12-.03.19-.01.06-.02.12-.03.19-.02.12-.04.25-.07.37-.04.19-.07.37-.11.55l-.04.18c-.01.06-.03.12-.04.18-.77-.75-1.79-1.16-2.92-1.16-1.02,0-2.07.34-3.12,1-.7.44-1.47,1.23-2.26,2.21-.73-1.02-1.76-1.7-2.94-1.88-.22-.04-.45-.05-.68-.05-2.69,0-4.3,2.33-4.91,4.43-.3.71-1.76,3.93-3.95,6.12-3.33,3.32-4.17,6.74-2.55,10.41ZM1764.55,744.78v.03c-.04.07-.07.14-.11.21-.03.05-.06.1-.09.15-.06.09-.13.18-.2.26-.02.02-.03.04-.05.06-.03.03-.05.06-.08.08-.49.48-1.23.9-2.06,1.29-.09.04-.19.09-.29.13l-.1.04c-.06.03-.13.06-.2.08-.06.03-.13.06-.2.08l-.2.08c-.47.19-.95.38-1.42.56l-.2.08-.2.08c-.13.05-.26.1-.39.15l-.19.08-.19.08-.09.04c-.06.03-.12.05-.18.08-1.39.59-2.38,1.2-2.17,1.95,0,.02.01.04.02.06.02.06.04.11.08.16.02.03.04.06.06.08.25.26.69.22,1.26.01.08-.03.16-.06.24-.09l.05-.02c.13-.05.27-.12.41-.18.04-.02.07-.03.11-.05.69-.34,1.47-.79,2.25-1.21.31-.17.63-.33.95-.48.74-.35,1.43-.59,1.98-.59.26,0,.49.05.68.18l.03.02c.12.08.22.19.3.32.01.02.03.05.04.08.27.52.04,1.06-.49,1.59-.52.51-1.32,1.01-2.23,1.47-.07.03-.14.07-.2.1-2.72,1.34-6.28,2.34-6.33,2.35-.95.25-2.31.57-3.83.81l-.23.04h-.04c-.17.03-.34.06-.51.08-.17.02-.35.04-.53.06h-.03c-.64.08-1.29.13-1.93.15h0c-.23,0-.47.01-.7.01h-.27c-.36,0-.71-.02-1.07-.05,0,0-.02,0-.03,0-.13,0-.25-.02-.38-.04-.13-.01-.26-.03-.39-.05-.09-.01-.17-.02-.26-.04-.09-.01-.17-.03-.26-.04l-.12-.02h0c-.13-.03-.25-.05-.37-.08-.07-.02-.14-.03-.22-.05h-.04s-.07-.03-.1-.04h-.02s-.11-.04-.11-.04c-.04-.01-.08-.02-.12-.04h-.01s-.11-.04-.11-.04c-.04-.01-.08-.03-.12-.04l-.1-.03-.07-.02c-.07-.02-.14-.05-.2-.08l-.06-.03-.05-.02c-.1-.04-.2-.08-.31-.13l-.07-.03h-.01s-.05-.03-.07-.04c-.05-.02-.09-.05-.14-.07h-.01s-.07-.04-.07-.04c-.12-.06-.23-.13-.35-.2l-.06-.04s-.06-.04-.09-.06l-.08-.05-.09-.06-.05-.04c-.05-.04-.11-.08-.16-.12l-.08-.06s-.07-.05-.1-.08c-.03-.02-.05-.05-.08-.07h0s-.06-.05-.09-.08c-.03-.03-.06-.05-.08-.08h0s-.06-.06-.08-.09c-.03-.03-.06-.06-.08-.09-.03-.03-.05-.06-.08-.09-.03-.03-.05-.06-.08-.09h0s-.05-.07-.07-.1c-.05-.06-.1-.12-.15-.19-.05-.06-.1-.13-.14-.2l-.04-.07c-.06-.09-.12-.17-.17-.26-.04-.06-.08-.13-.12-.19-.03-.04-.05-.08-.07-.12v-.02s-.06-.08-.08-.12c-.01-.02-.03-.04-.04-.06-.01-.02-.03-.05-.04-.07l-.02-.04v-.02s-.06-.09-.08-.13c-.01-.02-.02-.04-.03-.06l-.03-.06-.03-.06c-.08-.16-.16-.33-.23-.49l-.03-.06s-.03-.08-.05-.12c0-.02-.02-.04-.02-.06-.04-.1-.07-.2-.11-.3-.01-.04-.02-.07-.03-.11-.03-.08-.05-.16-.07-.25-.03-.1-.05-.19-.07-.29,0-.02,0-.04-.01-.06-.02-.1-.03-.19-.05-.29,0-.02,0-.04,0-.06v-.06c-.01-.08-.02-.15-.02-.23,0-.02,0-.04,0-.06,0-.04,0-.08,0-.11-.02-1.54.76-3.03,2.43-4.69,2.97-2.97,4.7-7.32,4.7-7.32,0,0,.05-.18.14-.44.01-.04.03-.07.04-.11.06-.15.12-.29.19-.43v-.03c.07-.12.14-.24.21-.35.02-.03.03-.05.05-.08.05-.08.11-.15.17-.23.03-.04.07-.08.1-.12.01-.02.03-.03.04-.04.17-.18.37-.32.59-.4h.03s.04-.02.06-.03c.02,0,.04-.01.07-.02h.01s.09-.02.14-.02h0s.05,0,.08,0c.03,0,.06,0,.09,0,.03,0,.06,0,.1.01.27.04.52.2.74.45.08.09.16.19.22.3.04.07.08.14.12.22.02.03.03.06.04.09.04.08.07.16.1.25.07.2.12.4.16.61.03.18.05.37.05.55,0,.1,0,.2,0,.3-.02.47-.12.93-.28,1.37-.02.04-.03.08-.05.12-.03.08-.07.16-.11.24-.03.06-.06.12-.09.18-.02.04-.04.08-.07.12-.06.1-.12.2-.19.29l-.04.06c-.16.22-.34.43-.53.62-.19.19-.4.37-.61.53-.22.16-.42.34-.61.53-.54.57-.67,1.07-.55,1.45.02.06.05.12.08.17.04.06.08.12.13.17l.02.02.02.02s.04.04.06.06l.02.02c.05.04.11.08.17.11.02,0,.03.02.05.03.06.03.13.06.19.08.02,0,.04.01.06.02h.02s.03.01.03.01h.03s.03.01.03.01h.03s.03.01.03.01c.02,0,.04,0,.06,0h.02s.04,0,.04,0h.02s.04,0,.04,0h.06s.12,0,.12,0h.04s.04,0,.04,0h.05s.05-.01.05-.01c.01,0,.02,0,.03,0,.14-.02.29-.06.42-.11l.06-.02s.06-.03.09-.04c.06-.03.13-.07.18-.11.08-.05.16-.11.23-.18.02-.02.03-.03.05-.05,0,0,.02-.02.02-.02.02-.02.03-.03.05-.05.12-.13.22-.27.3-.42.71-1.29,1.45-2.55,2.22-3.8l.11-.17.11-.17c.05-.09.11-.17.16-.26l.05-.08c.18-.28.36-.56.55-.84l.11-.16c.22-.33.44-.65.66-.95l.11-.15c.24-.33.48-.65.74-.96l.1-.12s.03-.04.05-.06c.03-.04.07-.08.1-.12.02-.02.03-.04.05-.06l.1-.11.05-.05c.05-.05.1-.1.14-.15.03-.03.06-.06.09-.09.18-.19.38-.35.6-.5l.05-.03s.1-.06.15-.09c.85-.48,1.56-.52,1.97-.11.25.25.38.65.38,1.22,0,.02,0,.05,0,.08v.03s0,.05,0,.08c0,.03,0,.06,0,.1,0,.03,0,.06,0,.09,0,0,0,.02,0,.02,0,.02,0,.05,0,.08,0,0,0,.02,0,.02,0,.03,0,.07-.01.1,0,.03,0,.06-.02.09v.05c-.02.05-.03.1-.05.15-.03.09-.06.18-.1.27-.06.12-.12.24-.19.36-.04.06-.08.13-.12.19-.04.06-.08.13-.13.2-.11.16-.23.32-.36.48l-.06.07c-.2.25-.41.5-.62.73l-.07.08c-.09.1-.18.2-.28.31l-.07.08c-.05.05-.1.1-.14.16-.05.05-.1.1-.15.16l-.15.16-.15.16-.15.16c-.1.11-.2.21-.31.32-1.46,1.5-3.01,3-3.53,3.93-.04.06-.07.12-.09.19-.07.17-.11.31-.08.43,0,.04.02.08.04.11.03.05.06.1.11.14.02.02.04.04.06.05.11.08.24.12.37.11h.08s.04,0,.04,0h.04s0,0,.01,0h.03s0,0,0,0h.04s.01-.01.01-.01c.01,0,.02,0,.04-.01.01,0,.03,0,.05-.01.06-.02.13-.04.19-.07.03-.01.06-.03.09-.04.02,0,.03-.01.05-.02l.05-.02c.12-.06.23-.13.34-.2l.05-.03s.03-.02.05-.03l.05-.03.03-.02.07-.05c.06-.04.12-.09.19-.14h0s.1-.08.1-.08c.13-.1.26-.21.37-.31l.08-.07h0s.04-.04.04-.04c.09-.08.18-.16.25-.23l.03-.03s.05-.05.07-.06l.04-.04h.01s0-.02,0-.02l.04-.04.03-.03h0s.01-.01.01-.01h.02s0-.02,0-.02h.01s.07-.08.07-.08l.04-.04s.04-.04.06-.06l.05-.04s.02-.02.03-.02l.05-.05.08-.07.04-.04c.16-.14.35-.3.57-.49l.09-.08.15-.12.15-.13c.2-.17.41-.34.64-.52l.15-.12c.13-.1.26-.2.39-.31.05-.04.11-.08.16-.12.13-.1.27-.21.41-.31.31-.23.63-.47.95-.7l.14-.1c.1-.07.19-.13.29-.2l.09-.06c.17-.12.35-.23.53-.34l.09-.06.09-.05c.09-.05.17-.11.26-.16l.09-.05.17-.1.17-.1.03-.02.13-.07c.06-.03.11-.06.17-.09l.08-.04.08-.04s.06-.03.08-.04c.18-.09.37-.17.55-.25.05-.02.1-.04.15-.06l.15-.05s.09-.03.13-.04h.01s.04-.02.07-.02h0s.09-.03.14-.04h0c.13-.03.26-.05.39-.07.06,0,.12,0,.18,0h.03s.08,0,.12,0c.02,0,.04,0,.05,0h0s.03,0,.05,0c.02,0,.03,0,.05.01h0s.03,0,.05.01c.09.03.18.07.26.12.04.03.08.05.11.09h0s.01.02.02.03l.02.02c.15.15.27.33.36.52v.03c.04.07.07.15.09.22.05.23.03.48-.06.7-.03.09-.07.18-.12.26-.11.19-.25.37-.4.52l-.03.03c-.05.05-.1.1-.15.15-.02.02-.05.05-.07.07l-.07.07-.04.03c-.09.08-.19.16-.29.24-.06.05-.12.09-.18.14-.21.16-.43.32-.65.47-.13.09-.27.18-.4.27-.33.22-.67.43-1.01.64-.71.44-1.5.9-2.34,1.41l-.22.13c-.24.15-.46.28-.67.42l-.11.07-.2.13c-.13.09-.27.17-.4.26l-.11.07c-.05.03-.1.07-.16.1l-.05.03-.16.11-.08.06-.1.07-.09.06c-.15.11-.29.21-.42.3l-.05.04c-.08.06-.15.12-.22.18-.11.09-.21.18-.3.26l-.04.04s-.05.05-.08.07c-.02.02-.03.03-.05.05l-.02.02c-.05.05-.1.11-.15.16l-.02.03c-.05.06-.1.12-.14.18l-.02.03s-.06.09-.09.14c0,.01-.01.02-.02.04l-.02.04v.03s-.02.02-.02.02v.02s-.01.02-.01.02c-.02.06-.04.12-.05.19v.02s0,.02,0,.02v.11s0,.02,0,.03v.02s0,.02,0,.03c0,0,0,.03,0,.04h0s0,.03,0,.04,0,.03.01.04c0,.03.02.05.02.08,0,.02.01.03.02.04,0,0,0,0,0,0v.03s.03.04.03.04c.02.04.04.08.06.12l.02.04.02.04s0,.01.01.02h0s0,.02,0,.02h0s.03.02.04.03c0,0,.02,0,.03,0,.21.05.64-.13,1.21-.43.03-.02.07-.04.1-.05l.17-.09.08-.05c.06-.03.12-.07.18-.1l.11-.06c.75-.43,1.65-.99,2.58-1.53.09-.05.17-.1.26-.15l.18-.11c.2-.12.41-.23.61-.35.26-.14.52-.28.78-.42l.17-.09c.11-.06.23-.11.34-.16.22-.1.43-.2.66-.29l.12-.05h.01c.64-.26,1.22-.42,1.69-.42.1,0,.2,0,.3.02h0s.06.01.09.02h0c.08.02.15.05.22.08.1.05.19.12.26.2.03.04.07.08.09.12.05.08.09.16.12.25.01.03.02.07.03.1.08.27.07.56-.02.83Z"/>
        <path class="cls-12" d="M1741.82,717.54c.43.15.74.61,1.05,1.05.41.59.79,1.14,1.37.83.69-.37,1.25-.93,1.62-1.61.37-.69.53-1.47.45-2.24-.06-.58-.24-1.14-.54-1.64-.3-.5-.7-.93-1.19-1.25-.48-.32-1.03-.54-1.61-.62-.58-.09-1.16-.04-1.72.12-.56.17-1.07.46-1.5.85-.43.39-.77.87-1,1.41s-.33,1.12-.3,1.7c.03.58.18,1.15.46,1.66.27.51.87.27,1.5.02.5-.2,1.01-.4,1.41-.27ZM1723.27,717.54c-.43.15-.74.61-1.05,1.05-.41.59-.79,1.14-1.37.83-.86-.46-1.53-1.22-1.86-2.14-.33-.92-.31-1.93.06-2.84s1.07-1.64,1.95-2.06c.88-.42,1.89-.49,2.83-.21.75.22,1.41.67,1.9,1.27.5.6.8,1.33.88,2.11.08.77-.08,1.56-.44,2.24-.27.51-.87.27-1.5.02-.5-.2-1.01-.41-1.41-.27ZM1738.95,734.42c2.94-2.32,4.02-6.1,4.02-8.43,0-1.84-1.24-1.26-3.22-.28l-.11.06c-1.82.9-4.24,2.1-6.9,2.1s-5.08-1.2-6.9-2.1c-2.05-1.01-3.33-1.65-3.33.23,0,2.4,1.15,6.35,4.3,8.64.42-.84,1-1.59,1.72-2.2.72-.61,1.56-1.06,2.46-1.33.31-.09.64.45.97,1,.32.54.65,1.08.98,1.08.35,0,.7-.54,1.04-1.07.36-.55.7-1.09,1.04-.98,1.69.54,3.1,1.72,3.94,3.28Z"/>
        <path class="cls-15" d="M1738.95,734.42c-1.53,1.21-3.57,2.02-6.22,2.02-2.49,0-4.44-.71-5.93-1.8.42-.84,1-1.59,1.72-2.2.72-.61,1.56-1.06,2.46-1.33.62-.18,1.27,2.09,1.95,2.09.73,0,1.43-2.26,2.08-2.05,1.69.54,3.1,1.72,3.94,3.28Z"/>
        <path class="cls-12" d="M1716.24,720.82c-.35.23-.75.38-1.17.42-.42.04-.84-.02-1.23-.18-.31-.13-.59-.32-.83-.55-.24-.24-.43-.52-.55-.83-.16-.39-.22-.81-.18-1.23.04-.42.19-.82.42-1.17.28-.42.68-.75,1.15-.94s.98-.24,1.48-.15c.5.1.95.34,1.31.7.36.36.6.81.7,1.31.1.5.05,1.01-.15,1.48-.19.47-.52.87-.94,1.15ZM1752.85,720.82c-.35.23-.75.38-1.17.42-.42.04-.84-.02-1.23-.18-.31-.13-.59-.32-.83-.55-.24-.24-.43-.52-.55-.83-.16-.39-.22-.81-.18-1.23.04-.42.19-.82.42-1.17.21-.31.49-.58.81-.77.32-.19.69-.31,1.06-.35.38-.04.76,0,1.11.14.36.13.68.33.95.6.36.36.6.81.7,1.31.1.5.05,1.01-.15,1.48s-.52.87-.94,1.15Z"/>
      </g>
    </g>
    <g id="Empty_Slot_1" data-name="Empty Slot 1">
      <rect class="cls-18" x="1000" y="826.67" width="133.33" height="133.33" rx="32" ry="32"/>
    </g>
    <g id="Empty_Slot_2" data-name="Empty Slot 2">
      <rect class="cls-18" x="1166.67" y="826.67" width="133.33" height="133.33" rx="32" ry="32"/>
    </g>
    <g id="Empty_Slot_3" data-name="Empty Slot 3">
      <rect class="cls-18" x="1333.33" y="826.67" width="133.33" height="133.33" rx="32" ry="32"/>
    </g>
    <g id="Empty_Slot_4" data-name="Empty Slot 4">
      <rect class="cls-18" x="1500" y="826.67" width="133.33" height="133.33" rx="32" ry="32"/>
    </g>
    <g id="Empty_Slot_5" data-name="Empty Slot 5">
      <g class="cls-17">
        <rect class="cls-18" x="1666.67" y="826.67" width="133.33" height="133.33" rx="32" ry="32"/>
      </g>
    </g>
  </g>
  <g>
    <rect class="cls-18" x="570" y="102" width="1250" height="438" rx="32" ry="32"/>
    <g>
      <path class="cls-89" d="M1207,398.5h598c4.42,0,8,3.58,8,8v103c0,13.25-10.75,24-24,24h-582c-4.42,0-8-3.58-8-8v-119c0-4.42,3.58-8,8-8Z"/>
      <text class="cls-6" transform="translate(1223.24 434.61)"><tspan x="0" y="0">DiamondG</tspan><tspan class="cls-46" x="100.16" y="0">o</tspan><tspan class="cls-64" x="111.46" y="0">t</tspan><tspan class="cls-83" x="120.86" y="0">C</tspan><tspan class="cls-40" x="135.12" y="0">a</tspan><tspan class="cls-104" x="145.54" y="0">t</tspan><tspan class="cls-34" x="155.24" y="0">/</tspan><tspan x="163.12" y="0">A</tspan><tspan class="cls-87" x="177.1" y="0">l</tspan><tspan x="182.38" y="0">l</tspan><tspan class="cls-74" x="187.7" y="0">o</tspan><tspan class="cls-90" x="199.38" y="0">w</tspan><tspan class="cls-99" x="215.2" y="0">D</tspan><tspan x="229.44" y="0">ynamic</tspan></text>
      <text class="cls-8" transform="translate(1222.26 469.27)"><tspan x="0" y="0">A</tspan><tspan class="cls-85" x="25.16" y="0">l</tspan><tspan x="34.67" y="0">l</tspan><tspan class="cls-81" x="44.24" y="0">o</tspan><tspan class="cls-91" x="65.27" y="0">w</tspan><tspan class="cls-101" x="93.74" y="0">D</tspan><tspan x="119.37" y="0">ynamic</tspan></text>
      <text class="cls-10" transform="translate(1223.54 510.35)"><tspan class="cls-102" x="0" y="0">D</tspan><tspan class="cls-31" x="11.39" y="0">ynami</tspan><tspan class="cls-68" x="57.1" y="0">c</tspan><tspan x="65.53" y="0">, </tspan><tspan class="cls-78" x="75.2" y="0">c</tspan><tspan x="83.68" y="0">a</tspan><tspan class="cls-86" x="92.41" y="0">l</tspan><tspan x="96.64" y="0">labl</tspan><tspan class="cls-103" x="123.6" y="0">e</tspan><tspan class="cls-31" x="132.72" y="0">-</tspan><tspan class="cls-102" x="139.42" y="0">b</tspan><tspan x="149.21" y="0">ac</tspan><tspan class="cls-35" x="166.54" y="0">k</tspan><tspan class="cls-102" x="174.91" y="0">e</tspan><tspan x="183.95" y="0">d ar</tspan><tspan class="cls-66" x="213.71" y="0">r</tspan><tspan class="cls-82" x="220.24" y="0">a</tspan><tspan x="228.84" y="0">y</tspan><tspan class="cls-63" x="237.4" y="0">-</tspan><tspan class="cls-88" x="244.03" y="0">l</tspan><tspan x="248.25" y="0">i</tspan><tspan class="cls-35" x="253.13" y="0">k</tspan><tspan x="261.5" y="0">e a</tspan><tspan class="cls-71" x="283.79" y="0">cc</tspan><tspan x="300.65" y="0">e</tspan><tspan class="cls-68" x="309.61" y="0">s</tspan><tspan class="cls-29" x="317.27" y="0">s with o</tspan><tspan class="cls-47" x="378.2" y="0">p</tspan><tspan x="387.48" y="0">tional </tspan><tspan class="cls-75" x="436.65" y="0">c</tspan><tspan x="445.13" y="0">aching. </tspan></text>
    </g>
    <g>
      <path class="cls-89" d="M585,398.5h598c4.42,0,8,3.58,8,8v119c0,4.42-3.58,8-8,8h-582c-13.25,0-24-10.75-24-24v-103c0-4.42,3.58-8,8-8Z"/>
      <text class="cls-6" transform="translate(601.24 434.61)"><tspan x="0" y="0">DiamondG</tspan><tspan class="cls-46" x="100.16" y="0">o</tspan><tspan class="cls-64" x="111.46" y="0">t</tspan><tspan class="cls-83" x="120.86" y="0">C</tspan><tspan class="cls-40" x="135.12" y="0">a</tspan><tspan class="cls-104" x="145.54" y="0">t</tspan><tspan x="155.24" y="0">/</tspan><tspan class="cls-58" x="164.58" y="0">F</tspan><tspan x="176.32" y="0">a</tspan><tspan class="cls-79" x="187.24" y="0">s</tspan><tspan class="cls-63" x="196.88" y="0">t</tspan><tspan x="206.28" y="0">G</tspan><tspan class="cls-47" x="221.88" y="0">e</tspan><tspan class="cls-28" x="232.54" y="0">t</tspan></text>
      <text class="cls-8" transform="translate(600.26 469.27)"><tspan class="cls-57" x="0" y="0">F</tspan><tspan class="cls-26" x="21.13" y="0">a</tspan><tspan class="cls-77" x="40.79" y="0">s</tspan><tspan class="cls-62" x="58.14" y="0">t</tspan><tspan x="75.06" y="0">G</tspan><tspan class="cls-47" x="103.14" y="0">e</tspan><tspan x="122.33" y="0">t</tspan></text>
      <text class="cls-10" transform="translate(601.54 510.35)"><tspan class="cls-56" x="0" y="0">F</tspan><tspan x="9.39" y="0">a</tspan><tspan class="cls-61" x="18.13" y="0">s</tspan><tspan x="25.84" y="0">t D</tspan><tspan class="cls-76" x="49.34" y="0">o</tspan><tspan x="58.69" y="0">wnl</tspan><tspan class="cls-99" x="84.91" y="0">o</tspan><tspan x="94.46" y="0">ad in H</tspan><tspan class="cls-103" x="148.29" y="0">T</tspan><tspan class="cls-29" x="159.15" y="0">T</tspan><tspan class="cls-51" x="169.85" y="0">P</tspan><tspan x="179.74" y="0">S </tspan></text>
    </g>
    <g>
      <rect class="cls-89" x="1198" y="253.5" width="614" height="135" rx="8" ry="8"/>
      <text class="cls-6" transform="translate(1222.24 289.61)"><tspan x="0" y="0">DiamondG</tspan><tspan class="cls-46" x="100.16" y="0">o</tspan><tspan class="cls-64" x="111.46" y="0">t</tspan><tspan class="cls-83" x="120.86" y="0">C</tspan><tspan class="cls-40" x="135.12" y="0">a</tspan><tspan class="cls-104" x="145.54" y="0">t</tspan><tspan x="155.24" y="0">/</tspan><tspan class="cls-103" x="164.58" y="0">D</tspan><tspan x="178.92" y="0">G</tspan><tspan class="cls-55" x="194.52" y="0">C</tspan><tspan x="207.84" y="0">-DNS</tspan></text>
      <text class="cls-8" transform="translate(1221.26 324.27)"><tspan class="cls-105" x="0" y="0">D</tspan><tspan x="25.81" y="0">G</tspan><tspan class="cls-57" x="53.89" y="0">C</tspan><tspan x="77.87" y="0">-DNS</tspan></text>
      <text class="cls-10" transform="translate(1222.54 365.35)"><tspan x="0" y="0">A </tspan><tspan class="cls-50" x="15.78" y="0">P</tspan><tspan class="cls-66" x="25.66" y="0">r</tspan><tspan class="cls-29" x="32.19" y="0">a</tspan><tspan class="cls-53" x="40.93" y="0">c</tspan><tspan x="49.31" y="0">ti</tspan><tspan class="cls-75" x="61.79" y="0">c</tspan><tspan class="cls-31" x="70.27" y="0">al and Lig</tspan><tspan class="cls-41" x="145.26" y="0">h</tspan><tspan x="154.49" y="0">t</tspan><tspan class="cls-82" x="162.09" y="0">w</tspan><tspan x="174.3" y="0">eig</tspan><tspan class="cls-42" x="197.85" y="0">h</tspan><tspan x="207.09" y="0">t O</tspan><tspan class="cls-102" x="232.73" y="0">p</tspan><tspan x="242.52" y="0">en</tspan><tspan class="cls-36" x="261.12" y="0">-</tspan><tspan class="cls-71" x="266.91" y="0">S</tspan><tspan class="cls-63" x="277" y="0">o</tspan><tspan class="cls-31" x="286.4" y="0">u</tspan><tspan class="cls-59" x="295.87" y="0">r</tspan><tspan class="cls-71" x="301.95" y="0">c</tspan><tspan x="310.38" y="0">e DNS </tspan><tspan class="cls-68" x="362.14" y="0">S</tspan><tspan x="372.23" y="0">e</tspan><tspan class="cls-103" x="381.19" y="0">r</tspan><tspan class="cls-82" x="388.07" y="0">v</tspan><tspan x="396.36" y="0">er </tspan></text>
    </g>
    <g>
      <rect class="cls-89" x="577" y="253.5" width="614" height="135" rx="8" ry="8"/>
      <text class="cls-6" transform="translate(601.74 289.61)"><tspan x="0" y="0">DiamondG</tspan><tspan class="cls-46" x="100.16" y="0">o</tspan><tspan class="cls-64" x="111.46" y="0">t</tspan><tspan class="cls-83" x="120.86" y="0">C</tspan><tspan class="cls-40" x="135.12" y="0">a</tspan><tspan class="cls-104" x="145.54" y="0">t</tspan><tspan class="cls-39" x="155.24" y="0">/</tspan><tspan class="cls-68" x="164.14" y="0">S</tspan><tspan class="cls-100" x="176.76" y="0">pee</tspan><tspan x="211.6" y="0">d</tspan><tspan class="cls-95" x="223.74" y="0">C</tspan><tspan x="238.32" y="0">lone</tspan></text>
      <text class="cls-8" transform="translate(600.76 324.27)"><tspan class="cls-70" x="0" y="0">S</tspan><tspan class="cls-99" x="22.72" y="0">pee</tspan><tspan class="cls-30" x="85.43" y="0">d</tspan><tspan class="cls-94" x="107.28" y="0">C</tspan><tspan class="cls-30" x="133.52" y="0">lone</tspan></text>
      <text class="cls-10" transform="translate(602.04 365.35)"><tspan x="0" y="0">ちょっと速い気がしなくもないgitのクローンツール </tspan></text>
    </g>
    <g>
      <path class="cls-89" d="M1207,108.5h582c13.25,0,24,10.75,24,24v103c0,4.42-3.58,8-8,8h-598c-4.42,0-8-3.58-8-8v-119c0-4.42,3.58-8,8-8Z"/>
      <text class="cls-6" transform="translate(1223.24 144.61)"><tspan class="cls-38" x="0" y="0">Z</tspan><tspan class="cls-47" x="12" y="0">e</tspan><tspan class="cls-80" x="22.66" y="0">t</tspan><tspan x="32.02" y="0">a-</tspan><tspan class="cls-103" x="51.32" y="0">D</tspan><tspan class="cls-28" x="65.66" y="0">GC/</tspan><tspan class="cls-37" x="104.92" y="0">Z</tspan><tspan class="cls-46" x="116.92" y="0">e</tspan><tspan class="cls-80" x="127.58" y="0">t</tspan><tspan x="136.94" y="0">a-L</tspan><tspan class="cls-98" x="168.92" y="0">L</tspan><tspan x="182.2" y="0">M</tspan></text>
      <text class="cls-8" transform="translate(1222.26 179.27)"><tspan class="cls-38" x="0" y="0">Z</tspan><tspan class="cls-48" x="21.6" y="0">e</tspan><tspan class="cls-73" x="40.79" y="0">t</tspan><tspan x="57.64" y="0">a L</tspan><tspan class="cls-97" x="110.45" y="0">L</tspan><tspan x="134.35" y="0">M</tspan></text>
      <text class="cls-10" transform="translate(1223.54 220.35)"><tspan class="cls-59" x="0" y="0">F</tspan><tspan x="9.55" y="0">u</tspan><tspan class="cls-88" x="19.02" y="0">l</tspan><tspan x="23.25" y="0">ly O</tspan><tspan class="cls-99" x="54.11" y="0">p</tspan><tspan x="63.9" y="0">en-s</tspan><tspan class="cls-65" x="97.02" y="0">o</tspan><tspan x="106.41" y="0">u</tspan><tspan class="cls-59" x="115.89" y="0">r</tspan><tspan class="cls-71" x="121.97" y="0">c</tspan><tspan x="130.4" y="0">e L</tspan><tspan class="cls-96" x="154.09" y="0">L</tspan><tspan class="cls-29" x="164.72" y="0">M </tspan></text>
    </g>
    <g>
      <path class="cls-89" d="M602,109.5h582c4.42,0,8,3.58,8,8v119c0,4.42-3.58,8-8,8h-598c-4.42,0-8-3.58-8-8v-103c0-13.25,10.75-24,24-24Z"/>
      <text class="cls-6" transform="translate(602.24 145.61)"><tspan x="0" y="0">Y</tspan><tspan class="cls-52" x="13.58" y="0">P</tspan><tspan x="25.94" y="0">SH-</tspan><tspan class="cls-104" x="61.74" y="0">D</tspan><tspan x="76.08" y="0">GC</tspan><tspan class="cls-92" x="106" y="0">/</tspan><tspan x="115.74" y="0">Y</tspan><tspan class="cls-52" x="129.32" y="0">P</tspan><tspan x="141.68" y="0">SH</tspan></text>
      <text class="cls-8" transform="translate(601.26 180.27)"><tspan x="0" y="0">P</tspan><tspan class="cls-33" x="22.97" y="0">y</tspan><tspan x="39.35" y="0">Y</tspan><tspan class="cls-49" x="63.79" y="0">P</tspan><tspan x="86.04" y="0">SH</tspan></text>
      <text class="cls-10" transform="translate(602.54 221.35)"><tspan x="0" y="0">A p</tspan><tspan class="cls-59" x="25.49" y="0">r</tspan><tspan class="cls-99" x="31.57" y="0">o</tspan><tspan x="41.12" y="0">g</tspan><tspan class="cls-67" x="50.83" y="0">r</tspan><tspan x="57.36" y="0">amming language with a simple and i</tspan><tspan class="cls-44" x="340.57" y="0">n</tspan><tspan x="349.8" y="0">tuiti</tspan><tspan class="cls-82" x="384.23" y="0">v</tspan><tspan x="392.52" y="0">e sy</tspan><tspan class="cls-44" x="422.46" y="0">n</tspan><tspan class="cls-61" x="431.69" y="0">t</tspan><tspan class="cls-69" x="439.18" y="0">a</tspan><tspan x="447.75" y="0">x</tspan></text>
    </g>
  </g>
  <rect class="cls-18" x="108" y="660" width="820" height="300" rx="32" ry="32"/>
  <path class="cls-89" d="M139,670h231c4.42,0,8,3.58,8,8v264c0,4.42-3.58,8-8,8h-231c-11.59,0-21-9.41-21-21v-238c0-11.59,9.41-21,21-21Z"/>
  <rect class="cls-89" x="388" y="670" width="260" height="280" rx="8" ry="8"/>
  <path class="cls-89" d="M666,670h231c11.59,0,21,9.41,21,21v238c0,11.59-9.41,21-21,21h-231c-4.42,0-8-3.58-8-8v-264c0-4.42,3.58-8,8-8Z"/>
  <path class="cls-4" d="M276.22,766.02s-1.98,5.93-5.64,9.6c4.52,28.22-26.53,48.82-50.8,32.74,6.21.28,12.42-1.69,16.93-5.64-14.11-4.23-21.17-20.88-14.11-33.87,6.21,7.34,15.8,11.57,25.4,11.29-2.54-11.85,11.29-18.63,19.76-10.72,3.1,0,8.47-3.39,8.47-3.39Z"/>
  <text class="cls-14" transform="translate(155.56 912.66)"><tspan x="0" y="0">@DiamondGotCat</tspan></text>
  <g>
    <path class="cls-5" d="M527.59,814v-9.6c.33-3.01-.53-6.02-2.4-8.4,7.2,0,14.4-4.8,14.4-13.2.19-3-.65-5.95-2.4-8.4.67-2.76.67-5.64,0-8.4,0,0-2.4,0-7.2,3.6-6.34-1.2-12.86-1.2-19.2,0-4.8-3.6-7.2-3.6-7.2-3.6-.72,2.76-.72,5.64,0,8.4-1.75,2.44-2.6,5.41-2.4,8.4,0,8.4,7.2,13.2,14.4,13.2-.94,1.18-1.63,2.52-2.04,3.96-.41,1.44-.53,2.95-.36,4.44v9.6"/>
    <path class="cls-5" d="M513.19,804.4c-10.82,4.8-12-4.8-16.8-4.8"/>
  </g>
  <text class="cls-14" transform="translate(425.56 912.66)"><tspan x="0" y="0">@DiamondGotCat</tspan></text>
  <g>
    <circle class="cls-4" cx="788" cy="790" r="24"/>
    <path class="cls-4" d="M788,766c-12.8,13.44-12.8,34.56,0,48,12.8-13.44,12.8-34.56,0-48"/>
    <path class="cls-4" d="M764,790h48"/>
  </g>
  <text class="cls-14" transform="translate(693.18 912.66)"><tspan x="0" y="0">diamondgo</tspan><tspan class="cls-54" x="114.14" y="0">t</tspan><tspan x="121.02" y="0">cat.net</tspan></text>
  <text class="cls-11" transform="translate(754.32 936.33)"><tspan class="cls-32" x="0" y="0">OR</tspan><tspan class="cls-23" x="16.71" y="0" xml:space="preserve"> d-g-c.net</tspan></text>
</svg>